<?xml version="1.0" encoding="UTF-8" standalone="no"?>
<svg xmlns="http://www.w3.org/2000/svg"
     xmlns:xlink="http://www.w3.org/1999/xlink"
     width="576px" height="432px" viewBox="0 0 576 432">
<title>glps_renderer figure</title>
<desc>
Creator: GL2PS 1.3.8, (C) 1999-2012 C. Geuzaine
For: Octave
CreationDate: Wed Jun  1 14:26:51 2016
</desc>
<defs>
</defs>
<g shape-rendering="crispEdges">
<polygon fill="#ffffff" points="186.521,384.48 409.639,384.48 186.521,32.4"/>
<polygon fill="#ffffff" points="409.639,384.48 409.639,32.4 186.521,32.4"/>
<polyline fill="none" stroke="#000000" stroke-width="0.5" stroke-dasharray="16,0" points="186.521,384.48 409.639,384.48"/>
<polyline fill="none" stroke="#000000" stroke-width="0.5" stroke-dasharray="16,0" points="186.521,32.4 409.639,32.4"/>
<polyline fill="none" stroke="#000000" stroke-width="0.5" stroke-dasharray="16,0" points="186.521,32.4 409.639,32.4"/>
<polyline fill="none" stroke="#000000" stroke-width="0.5" stroke-dasharray="16,0" points="186.521,384.48 409.639,384.48"/>
<polyline fill="none" stroke="#000000" stroke-width="0.5" stroke-dasharray="16,0" points="186.521,384.48 186.521,32.4"/>
<polyline fill="none" stroke="#000000" stroke-width="0.5" stroke-dasharray="16,0" points="409.639,384.48 409.639,32.4"/>
<polyline fill="none" stroke="#000000" stroke-width="0.5" stroke-dasharray="16,0" points="409.639,384.48 409.639,32.4"/>
<polyline fill="none" stroke="#000000" stroke-width="0.5" stroke-dasharray="16,0" points="186.521,384.48 186.521,32.4 186.521,32.4"/>
<polyline fill="none" stroke="#000000" stroke-width="0.5" stroke-dasharray="16,0" points="409.639,32.4 409.639,32.4"/>
<polyline fill="none" stroke="#000000" stroke-width="0.5" stroke-dasharray="16,0" points="409.639,384.48 409.639,384.48"/>
<polyline fill="none" stroke="#000000" stroke-width="0.5" stroke-dasharray="16,0" points="186.521,384.48 186.521,384.48"/>
<polyline fill="none" stroke="#000000" stroke-width="0.5" stroke-dasharray="16,0" points="210.177,384.48 210.177,380.015"/>
<polyline fill="none" stroke="#000000" stroke-width="0.5" stroke-dasharray="16,0" points="210.177,32.4 210.177,36.865"/>
<polyline fill="none" stroke="#000000" stroke-width="0.5" stroke-dasharray="16,0" points="266.837,384.48 266.837,380.015"/>
<polyline fill="none" stroke="#000000" stroke-width="0.5" stroke-dasharray="16,0" points="266.837,32.4 266.837,36.865"/>
<polyline fill="none" stroke="#000000" stroke-width="0.5" stroke-dasharray="16,0" points="323.497,384.48 323.497,380.015"/>
<polyline fill="none" stroke="#000000" stroke-width="0.5" stroke-dasharray="16,0" points="323.497,32.4 323.497,36.865"/>
<polyline fill="none" stroke="#000000" stroke-width="0.5" stroke-dasharray="16,0" points="380.157,384.48 380.157,380.015"/>
<polyline fill="none" stroke="#000000" stroke-width="0.5" stroke-dasharray="16,0" points="380.157,32.4 380.157,36.865"/>
<text fill="#000000" x="210.177" y="389.481" font-size="10" text-anchor="middle" baseline-shift="-10" font-family="Helvetica">-2</text>
<text fill="#000000" x="266.837" y="389.481" font-size="10" text-anchor="middle" baseline-shift="-10" font-family="Helvetica">0</text>
<text fill="#000000" x="323.497" y="389.481" font-size="10" text-anchor="middle" baseline-shift="-10" font-family="Helvetica">2</text>
<text fill="#000000" x="380.157" y="389.481" font-size="10" text-anchor="middle" baseline-shift="-10" font-family="Helvetica">4</text>
<polyline fill="none" stroke="#000000" stroke-width="0.5" stroke-dasharray="16,0" points="186.521,374.978 190.987,374.978"/>
<polyline fill="none" stroke="#000000" stroke-width="0.5" stroke-dasharray="16,0" points="409.639,374.978 405.172,374.978"/>
<polyline fill="none" stroke="#000000" stroke-width="0.5" stroke-dasharray="16,0" points="186.521,318.318 190.987,318.318"/>
<polyline fill="none" stroke="#000000" stroke-width="0.5" stroke-dasharray="16,0" points="409.639,318.318 405.172,318.318"/>
<polyline fill="none" stroke="#000000" stroke-width="0.5" stroke-dasharray="16,0" points="186.521,261.658 190.987,261.658"/>
<polyline fill="none" stroke="#000000" stroke-width="0.5" stroke-dasharray="16,0" points="409.639,261.658 405.172,261.658"/>
<polyline fill="none" stroke="#000000" stroke-width="0.5" stroke-dasharray="16,0" points="186.521,204.998 190.987,204.998"/>
<polyline fill="none" stroke="#000000" stroke-width="0.5" stroke-dasharray="16,0" points="409.639,204.998 405.172,204.998"/>
<polyline fill="none" stroke="#000000" stroke-width="0.5" stroke-dasharray="16,0" points="186.521,148.337 190.987,148.337"/>
<polyline fill="none" stroke="#000000" stroke-width="0.5" stroke-dasharray="16,0" points="409.639,148.337 405.172,148.337"/>
<polyline fill="none" stroke="#000000" stroke-width="0.5" stroke-dasharray="16,0" points="186.521,91.6772 190.987,91.6772"/>
<polyline fill="none" stroke="#000000" stroke-width="0.5" stroke-dasharray="16,0" points="409.639,91.6772 405.172,91.6772"/>
<polyline fill="none" stroke="#000000" stroke-width="0.5" stroke-dasharray="16,0" points="186.521,35.0171 190.987,35.0171"/>
<polyline fill="none" stroke="#000000" stroke-width="0.5" stroke-dasharray="16,0" points="409.639,35.0171 405.172,35.0171"/>
<text fill="#000000" x="181.518" y="374.978" font-size="10" text-anchor="end" baseline-shift="-5" font-family="Helvetica">-6</text>
<text fill="#000000" x="181.518" y="318.318" font-size="10" text-anchor="end" baseline-shift="-5" font-family="Helvetica">-4</text>
<text fill="#000000" x="181.518" y="261.658" font-size="10" text-anchor="end" baseline-shift="-5" font-family="Helvetica">-2</text>
<text fill="#000000" x="181.518" y="204.998" font-size="10" text-anchor="end" baseline-shift="-5" font-family="Helvetica">0</text>
<text fill="#000000" x="181.518" y="148.337" font-size="10" text-anchor="end" baseline-shift="-5" font-family="Helvetica">2</text>
<text fill="#000000" x="181.518" y="91.6772" font-size="10" text-anchor="end" baseline-shift="-5" font-family="Helvetica">4</text>
<text fill="#000000" x="181.518" y="35.0171" font-size="10" text-anchor="end" baseline-shift="-5" font-family="Helvetica">6</text>
<polyline fill="none" stroke="#00007f" stroke-width="0.5" points="186.521,245.219 190.983,244.297 194.114,243.648 195.446,243.342 199.908,242.313 204.371,241.283 208.833,240.25 213.295,239.214 217.758,238.177 222.22,237.138 224.494,236.606 226.682,236.033 231.145,234.862 235.607,233.689 240.069,232.514 244.532,231.337 248.994,230.158 251.234,229.565 253.456,228.896 257.919,227.551 262.381,226.204 266.844,224.855 271.306,223.506 274.548,222.523 275.768,222.096 280.231,220.53 284.693,218.963 289.155,217.395 293.618,215.827 294.597,215.482 298.08,214.031 302.542,212.171 307.005,210.312 311.467,208.454 311.5,208.44 315.929,206.182 320.392,203.91 324.854,201.642 325.333,201.398 329.316,198.799 333.779,195.895 336.146,194.357 338.241,192.464 342.704,188.444 343.96,187.315 347.166,182.604 348.759,180.274 350.504,173.232 349.118,166.19 347.166,163.191 344.495,159.149 342.704,157.554 338.241,153.634 336.481,152.107 333.779,150.445 329.316,147.731 324.876,145.066 324.854,145.055 320.392,142.995 315.929,140.959 311.467,138.946 309.404,138.024 307.005,137.147 302.542,135.532 298.08,133.933 293.618,132.351 289.719,130.982 289.155,130.815 284.693,129.499 280.231,128.196 275.768,126.905 271.306,125.628 266.844,124.363 265.341,123.941 262.381,123.218 257.919,122.139 253.456,121.07 248.994,120.011 244.532,118.962 240.069,117.923 235.63,116.899 235.607,116.894 231.145,115.991 226.682,115.096 222.22,114.21 217.758,113.332 213.295,112.462 208.833,111.6 204.371,110.747 199.908,109.902 199.672,109.858 195.446,109.145 190.983,108.399 186.521,107.661"/>
<polyline fill="none" stroke="#0000f0" stroke-width="0.5" points="186.521,273.697 190.983,273.009 195.446,272.318 198.693,271.814 199.908,271.612 204.371,270.864 208.833,270.114 213.295,269.363 217.758,268.609 222.22,267.853 226.682,267.095 231.145,266.334 235.607,265.572 240.069,264.808 240.272,264.773 244.532,263.981 248.994,263.15 253.456,262.317 257.919,261.481 262.381,260.644 266.844,259.804 271.306,258.962 275.768,258.119 277.812,257.731 280.231,257.233 284.693,256.31 289.155,255.386 293.618,254.459 298.08,253.531 302.542,252.6 307.005,251.668 311.467,250.734 311.676,250.69 315.929,249.712 320.392,248.684 324.854,247.654 329.316,246.622 333.779,245.589 338.241,244.553 342.133,243.648 342.704,243.502 347.166,242.354 351.628,241.204 356.091,240.052 360.553,238.899 365.015,237.744 369.403,236.606 369.478,236.585 373.94,235.292 378.402,233.998 382.865,232.703 387.327,231.406 391.789,230.107 393.65,229.565 396.252,228.709 400.714,227.239 405.176,225.769 409.639,224.297"/>
<polyline fill="none" stroke="#0000f0" stroke-width="0.5" points="409.639,118.666 405.176,117.303 403.843,116.899 400.714,116.067 396.252,114.89 391.789,113.723 387.327,112.566 382.865,111.418 378.402,110.28 376.732,109.858 373.94,109.227 369.478,108.228 365.015,107.237 360.553,106.254 356.091,105.279 351.628,104.312 347.166,103.354 344.644,102.816 342.704,102.442 338.241,101.59 333.779,100.744 329.316,99.9049 324.854,99.0729 320.392,98.2478 315.929,97.4296 311.467,96.6181 307.005,95.8134 306.787,95.7744 302.542,95.0811 298.08,94.358 293.618,93.6409 289.155,92.9298 284.693,92.2246 280.231,91.5253 275.768,90.8318 271.306,90.1443 266.844,89.4626 262.381,88.7866 262.023,88.7328 257.919,88.1649 253.456,87.5527 248.994,86.9456 244.532,86.3438 240.069,85.7469 235.607,85.1554 231.145,84.5689 226.682,83.9875 222.22,83.4113 217.758,82.84 213.295,82.2739 208.833,81.7127 208.66,81.6912 204.371,81.1951 199.908,80.6835 195.446,80.1766 190.983,79.6741 186.521,79.1762"/>
<polyline fill="none" stroke="#0063ff" stroke-width="0.5" points="186.521,295.548 190.983,294.963 195.446,294.376 199.908,293.787 204.371,293.196 206.3,292.939 208.833,292.582 213.295,291.95 217.758,291.317 222.22,290.681 226.682,290.044 231.145,289.405 235.607,288.764 240.069,288.121 244.532,287.476 248.994,286.829 253.456,286.18 255.392,285.898 257.919,285.505 262.381,284.81 266.844,284.113 271.306,283.414 275.768,282.713 280.231,282.01 284.693,281.305 289.155,280.598 293.618,279.89 298.08,279.179 300.104,278.856 302.542,278.44 307.005,277.676 311.467,276.91 315.929,276.143 320.392,275.374 324.854,274.602 329.316,273.829 333.779,273.054 338.241,272.277 340.891,271.814 342.704,271.475 347.166,270.637 351.628,269.797 356.091,268.954 360.553,268.111 365.015,267.265 369.478,266.417 373.94,265.568 378.108,264.773 378.402,264.712 382.865,263.792 387.327,262.87 391.789,261.946 396.252,261.02 400.714,260.092 405.176,259.163 409.639,258.231"/>
<polyline fill="none" stroke="#0063ff" stroke-width="0.5" points="409.639,84.7833 405.176,84.0152 400.714,83.2529 396.252,82.4964 391.789,81.7455 391.464,81.6912 387.327,81.0522 382.865,80.3681 378.402,79.6891 373.94,79.0153 369.478,78.3464 365.015,77.6827 360.553,77.024 356.091,76.3703 351.628,75.7216 347.166,75.078 344.174,74.6496 342.704,74.4539 338.241,73.8639 333.779,73.2785 329.316,72.6976 324.854,72.1212 320.392,71.5493 315.929,70.9818 311.467,70.4188 307.005,69.8603 302.542,69.3062 298.08,68.7565 293.618,68.2112 289.155,67.6703 288.638,67.608 284.693,67.1641 280.231,66.666 275.768,66.1718 271.306,65.6816 266.844,65.1955 262.381,64.7134 257.919,64.2352 253.456,63.761 248.994,63.2907 244.532,62.8244 240.069,62.362 235.607,61.9035 231.145,61.449 226.682,60.9984 222.368,60.5664 222.22,60.5525 217.758,60.1359 213.295,59.7229 208.833,59.3135 204.371,58.9077 199.908,58.5054 195.446,58.1067 190.983,57.7115 186.521,57.3199"/>
<polyline fill="none" stroke="#00d4ff" stroke-width="0.5" points="186.521,314.018 190.983,313.48 195.446,312.941 199.908,312.4 204.371,311.857 208.833,311.313 213.295,310.766 217.758,310.218 222.22,309.669 226.682,309.117 231.145,308.564 235.607,308.009 240.069,307.452 243.501,307.022 244.532,306.886 248.994,306.295 253.456,305.703 257.919,305.108 262.381,304.512 266.844,303.914 271.306,303.314 275.768,302.713 280.231,302.11 284.693,301.505 289.155,300.898 293.618,300.289 295.873,299.981 298.08,299.662 302.542,299.015 307.005,298.366 311.467,297.715 315.929,297.063 320.392,296.409 324.854,295.753 329.316,295.095 333.779,294.436 338.241,293.775 342.704,293.112 343.863,292.939 347.166,292.418 351.628,291.711 356.091,291.003 360.553,290.293 365.015,289.581 369.478,288.868 373.94,288.153 378.402,287.436 382.865,286.717 387.327,285.997 387.939,285.898 391.789,285.235 396.252,284.465 400.714,283.693 405.176,282.92 409.639,282.145"/>
<polyline fill="none" stroke="#00d4ff" stroke-width="0.5" points="409.639,60.7685 408.124,60.5664 405.176,60.1977 400.714,59.6433 396.252,59.0928 391.789,58.5463 387.327,58.0038 382.865,57.4651 378.402,56.9304 373.94,56.3997 369.478,55.8728 365.015,55.3498 360.553,54.8307 356.091,54.3154 351.628,53.804 349.174,53.5248 347.166,53.3096 342.704,52.8348 338.241,52.3635 333.779,51.8958 329.316,51.4316 324.854,50.9709 320.392,50.5139 315.929,50.0603 311.467,49.6102 307.005,49.1636 302.542,48.7206 298.08,48.2811 293.618,47.845 289.155,47.4124 284.693,46.9832 280.231,46.5576 279.445,46.4832 275.768,46.1539 271.306,45.7576 266.844,45.3644 262.381,44.9744 257.919,44.5876 253.456,44.204 248.994,43.8237 244.532,43.4465 240.069,43.0724 235.607,42.7015 231.145,42.3338 226.682,41.9693 222.22,41.6078 217.758,41.2496 213.295,40.8944 208.833,40.5424 204.371,40.1935 199.908,39.8477 195.446,39.5049 194.614,39.4416 190.983,39.1792 186.521,38.8596"/>
<polyline fill="none" stroke="#46ffb8" stroke-width="0.5" points="318.741,32.4 320.392,32.546 324.854,32.9433 329.316,33.3437 333.779,33.7472 338.241,34.1537 342.704,34.5634 347.166,34.9763 351.628,35.3922 356.091,35.8112 360.553,36.2334 365.015,36.6587 369.478,37.0872 373.94,37.5188 378.402,37.9536 382.865,38.3915 387.327,38.8326 391.789,39.2769 393.432,39.4416 396.252,39.7399 400.714,40.2152 405.176,40.694 409.639,41.1761"/>
<polyline fill="none" stroke="#46ffb8" stroke-width="0.5" points="186.521,330.217 190.983,329.742 195.446,329.266 199.908,328.788 204.371,328.309 205.866,328.147 208.833,327.812 213.295,327.307 217.758,326.799 222.22,326.291 226.682,325.78 231.145,325.268 235.607,324.754 240.069,324.239 244.532,323.722 248.994,323.203 253.456,322.683 257.919,322.161 262.381,321.638 266.844,321.113 266.903,321.106 271.306,320.56 275.768,320.006 280.231,319.45 284.693,318.893 289.155,318.334 293.618,317.773 298.08,317.21 302.542,316.646 307.005,316.081 311.467,315.513 315.929,314.944 320.392,314.374 322.808,314.064 324.854,313.788 329.316,313.185 333.779,312.58 338.241,311.974 342.704,311.366 347.166,310.756 351.628,310.145 356.091,309.532 360.553,308.917 365.015,308.301 369.478,307.683 373.94,307.064 374.238,307.022 378.402,306.412 382.865,305.756 387.327,305.098 391.789,304.439 396.252,303.778 400.714,303.116 405.176,302.452 409.639,301.786"/>
<polyline fill="none" stroke="#b8ff46" stroke-width="0.5" points="186.521,344.891 190.983,344.447 195.446,344.002 199.908,343.555 204.371,343.107 208.833,342.657 213.048,342.23 213.295,342.204 217.758,341.732 222.22,341.258 226.682,340.782 231.145,340.305 235.607,339.827 240.069,339.347 244.532,338.865 248.994,338.382 253.456,337.897 257.919,337.411 262.381,336.923 266.844,336.434 271.306,335.943 275.768,335.451 278.138,335.189 280.231,334.947 284.693,334.43 289.155,333.911 293.618,333.39 298.08,332.868 302.542,332.345 307.005,331.82 311.467,331.293 315.929,330.765 320.392,330.235 324.854,329.704 329.316,329.171 333.779,328.637 337.86,328.147 338.241,328.099 342.704,327.537 347.166,326.974 351.628,326.408 356.091,325.842 360.553,325.273 365.015,324.704 369.478,324.132 373.94,323.559 378.402,322.985 382.865,322.409 387.327,321.832 391.789,321.253 392.921,321.106 396.252,320.652 400.714,320.042 405.176,319.43 409.639,318.817"/>
<polyline fill="none" stroke="#ffd400" stroke-width="0.5" points="186.521,358.393 190.983,357.976 195.446,357.557 199.908,357.137 204.371,356.716 208.618,356.314 208.833,356.293 213.295,355.851 217.758,355.409 222.22,354.965 226.682,354.52 231.145,354.073 235.607,353.625 240.069,353.175 244.532,352.724 248.994,352.271 253.456,351.817 257.919,351.362 262.381,350.905 266.844,350.446 271.306,349.987 275.768,349.526 278.213,349.272 280.231,349.054 284.693,348.571 289.155,348.087 293.618,347.601 298.08,347.113 302.542,346.625 307.005,346.134 311.467,345.642 315.929,345.149 320.392,344.655 324.854,344.159 329.316,343.661 333.779,343.162 338.241,342.662 342.079,342.23 342.704,342.157 347.166,341.633 351.628,341.107 356.091,340.579 360.553,340.05 365.015,339.52 369.478,338.988 373.94,338.455 378.402,337.92 382.865,337.384 387.327,336.847 391.789,336.308 396.252,335.767 400.714,335.226 401.017,335.189 405.176,334.66 409.639,334.092"/>
<polyline fill="none" stroke="#ff6300" stroke-width="0.5" points="186.521,370.973 190.983,370.579 193.047,370.397 195.446,370.177 199.908,369.766 204.371,369.353 208.833,368.94 213.295,368.525 217.758,368.108 222.22,367.69 226.682,367.271 231.145,366.851 235.607,366.429 240.069,366.006 244.532,365.581 248.994,365.155 253.456,364.728 257.919,364.299 262.381,363.869 266.844,363.437 267.69,363.355 271.306,362.991 275.768,362.541 280.231,362.089 284.693,361.635 289.155,361.181 293.618,360.724 298.08,360.267 302.542,359.808 307.005,359.348 311.467,358.886 315.929,358.423 320.392,357.959 324.854,357.493 329.316,357.026 333.779,356.558 336.101,356.314 338.241,356.08 342.704,355.59 347.166,355.099 351.628,354.607 356.091,354.113 360.553,353.618 365.015,353.122 369.478,352.624 373.94,352.125 378.402,351.625 382.865,351.123 387.327,350.62 391.789,350.115 396.252,349.609 399.219,349.272 400.714,349.095 405.176,348.566 409.639,348.036"/>
<polyline fill="none" stroke="#f00000" stroke-width="0.5" points="186.521,382.759 190.983,382.373 195.446,381.986 199.908,381.598 204.371,381.208 208.833,380.817 213.295,380.425 217.758,380.031 222.22,379.636 226.682,379.24 231.145,378.842 235.607,378.444 240.069,378.044 244.532,377.642 246.789,377.438 248.994,377.232 253.456,376.814 257.919,376.395 262.381,375.974 266.844,375.552 271.306,375.128 275.768,374.703 280.231,374.277 284.693,373.85 289.155,373.421 293.618,372.991 298.08,372.56 302.542,372.127 307.005,371.693 311.467,371.258 315.929,370.821 320.257,370.397 320.392,370.383 324.854,369.928 329.316,369.472 333.779,369.014 338.241,368.555 342.704,368.095 347.166,367.633 351.628,367.17 356.091,366.706 360.553,366.24 365.015,365.774 369.478,365.305 373.94,364.836 378.402,364.365 382.865,363.893 387.327,363.42 387.935,363.355 391.789,362.93 396.252,362.436 400.714,361.941 405.176,361.445 409.639,360.947"/>
<polyline fill="none" stroke="#7f0000" stroke-width="0.5" points="294.596,384.48 298.08,384.15 302.542,383.727 307.005,383.302 311.467,382.876 315.929,382.449 320.392,382.021 324.854,381.591 329.316,381.16 333.779,380.728 338.241,380.294 342.704,379.859 347.166,379.423 351.628,378.986 356.091,378.548 360.553,378.108 365.015,377.667 367.323,377.438 369.478,377.218 373.94,376.759 378.402,376.298 382.865,375.837 387.327,375.374 391.789,374.911 396.252,374.445 400.714,373.979 405.176,373.511 409.639,373.042"/>
</g>
</svg>
