<?xml version="1.0" encoding="UTF-8" standalone="no"?>
<svg xmlns="http://www.w3.org/2000/svg"
     xmlns:xlink="http://www.w3.org/1999/xlink"
     width="576px" height="432px" viewBox="0 0 576 432">
<title>glps_renderer figure</title>
<desc>
Creator: GL2PS 1.3.8, (C) 1999-2012 C. Geuzaine
For: Octave
CreationDate: Wed Jun  1 14:37:30 2016
</desc>
<defs>
</defs>
<g shape-rendering="crispEdges">
<polygon fill="#ffffff" points="196.532,384.48 399.628,384.48 196.532,32.4"/>
<polygon fill="#ffffff" points="399.628,384.48 399.628,32.4 196.532,32.4"/>
<polyline fill="none" stroke="#000000" stroke-width="1.0" stroke-dasharray="16,0" points="196.532,384.48 399.628,384.48"/>
<polyline fill="none" stroke="#000000" stroke-width="1.0" stroke-dasharray="16,0" points="196.532,32.4 399.628,32.4"/>
<polyline fill="none" stroke="#000000" stroke-width="1.0" stroke-dasharray="16,0" points="196.532,32.4 399.628,32.4"/>
<polyline fill="none" stroke="#000000" stroke-width="1.0" stroke-dasharray="16,0" points="196.532,384.48 399.628,384.48"/>
<polyline fill="none" stroke="#000000" stroke-width="1.0" stroke-dasharray="16,0" points="196.532,384.48 196.532,32.4"/>
<polyline fill="none" stroke="#000000" stroke-width="1.0" stroke-dasharray="16,0" points="399.628,384.48 399.628,32.4"/>
<polyline fill="none" stroke="#000000" stroke-width="1.0" stroke-dasharray="16,0" points="399.628,384.48 399.628,32.4"/>
<polyline fill="none" stroke="#000000" stroke-width="1.0" stroke-dasharray="16,0" points="196.532,384.48 196.532,32.4 196.532,32.4"/>
<polyline fill="none" stroke="#000000" stroke-width="1.0" stroke-dasharray="16,0" points="399.628,32.4 399.628,32.4"/>
<polyline fill="none" stroke="#000000" stroke-width="1.0" stroke-dasharray="16,0" points="399.628,384.48 399.628,384.48"/>
<polyline fill="none" stroke="#000000" stroke-width="1.0" stroke-dasharray="16,0" points="196.532,384.48 196.532,384.48"/>
<polyline fill="none" stroke="#000000" stroke-width="1.0" stroke-dasharray="16,0" points="217.89,384.48 217.89,380.015"/>
<polyline fill="none" stroke="#000000" stroke-width="1.0" stroke-dasharray="16,0" points="217.89,32.4 217.89,36.865"/>
<polyline fill="none" stroke="#000000" stroke-width="1.0" stroke-dasharray="16,0" points="270.097,384.48 270.097,380.015"/>
<polyline fill="none" stroke="#000000" stroke-width="1.0" stroke-dasharray="16,0" points="270.097,32.4 270.097,36.865"/>
<polyline fill="none" stroke="#000000" stroke-width="1.0" stroke-dasharray="16,0" points="322.303,384.48 322.303,380.015"/>
<polyline fill="none" stroke="#000000" stroke-width="1.0" stroke-dasharray="16,0" points="322.303,32.4 322.303,36.865"/>
<polyline fill="none" stroke="#000000" stroke-width="1.0" stroke-dasharray="16,0" points="374.509,384.48 374.509,380.015"/>
<polyline fill="none" stroke="#000000" stroke-width="1.0" stroke-dasharray="16,0" points="374.509,32.4 374.509,36.865"/>
<text fill="#000000" x="217.89" y="389.481" font-size="10" text-anchor="middle" baseline-shift="-10" font-family="Helvetica">-2</text>
<text fill="#000000" x="270.097" y="389.481" font-size="10" text-anchor="middle" baseline-shift="-10" font-family="Helvetica">0</text>
<text fill="#000000" x="322.303" y="389.481" font-size="10" text-anchor="middle" baseline-shift="-10" font-family="Helvetica">2</text>
<text fill="#000000" x="374.509" y="389.481" font-size="10" text-anchor="middle" baseline-shift="-10" font-family="Helvetica">4</text>
<polyline fill="none" stroke="#000000" stroke-width="1.0" stroke-dasharray="16,0" points="196.532,351.806 200.998,351.806"/>
<polyline fill="none" stroke="#000000" stroke-width="1.0" stroke-dasharray="16,0" points="399.628,351.806 395.162,351.806"/>
<polyline fill="none" stroke="#000000" stroke-width="1.0" stroke-dasharray="16,0" points="196.532,299.599 200.998,299.599"/>
<polyline fill="none" stroke="#000000" stroke-width="1.0" stroke-dasharray="16,0" points="399.628,299.599 395.162,299.599"/>
<polyline fill="none" stroke="#000000" stroke-width="1.0" stroke-dasharray="16,0" points="196.532,247.393 200.998,247.393"/>
<polyline fill="none" stroke="#000000" stroke-width="1.0" stroke-dasharray="16,0" points="399.628,247.393 395.162,247.393"/>
<polyline fill="none" stroke="#000000" stroke-width="1.0" stroke-dasharray="16,0" points="196.532,195.187 200.998,195.187"/>
<polyline fill="none" stroke="#000000" stroke-width="1.0" stroke-dasharray="16,0" points="399.628,195.187 395.162,195.187"/>
<polyline fill="none" stroke="#000000" stroke-width="1.0" stroke-dasharray="16,0" points="196.532,142.981 200.998,142.981"/>
<polyline fill="none" stroke="#000000" stroke-width="1.0" stroke-dasharray="16,0" points="399.628,142.981 395.162,142.981"/>
<polyline fill="none" stroke="#000000" stroke-width="1.0" stroke-dasharray="16,0" points="196.532,90.7749 200.998,90.7749"/>
<polyline fill="none" stroke="#000000" stroke-width="1.0" stroke-dasharray="16,0" points="399.628,90.7749 395.162,90.7749"/>
<polyline fill="none" stroke="#000000" stroke-width="1.0" stroke-dasharray="16,0" points="196.532,38.5688 200.998,38.5688"/>
<polyline fill="none" stroke="#000000" stroke-width="1.0" stroke-dasharray="16,0" points="399.628,38.5688 395.162,38.5688"/>
<text fill="#000000" x="191.53" y="351.806" font-size="10" text-anchor="end" baseline-shift="-5" font-family="Helvetica">-6</text>
<text fill="#000000" x="191.53" y="299.599" font-size="10" text-anchor="end" baseline-shift="-5" font-family="Helvetica">-4</text>
<text fill="#000000" x="191.53" y="247.393" font-size="10" text-anchor="end" baseline-shift="-5" font-family="Helvetica">-2</text>
<text fill="#000000" x="191.53" y="195.187" font-size="10" text-anchor="end" baseline-shift="-5" font-family="Helvetica">0</text>
<text fill="#000000" x="191.53" y="142.981" font-size="10" text-anchor="end" baseline-shift="-5" font-family="Helvetica">2</text>
<text fill="#000000" x="191.53" y="90.7749" font-size="10" text-anchor="end" baseline-shift="-5" font-family="Helvetica">4</text>
<text fill="#000000" x="191.53" y="38.5688" font-size="10" text-anchor="end" baseline-shift="-5" font-family="Helvetica">6</text>
<polyline fill="none" stroke="#00007f" stroke-width="1.0" points="196.532,249.506 200.594,248.619 204.656,247.724 208.718,246.82 212.78,245.909 216.842,244.989 220.903,244.061 222.693,243.648 224.965,243.07 229.027,242.028 233.089,240.978 237.151,239.922 241.213,238.858 245.275,237.788 249.337,236.711 249.728,236.606 253.399,235.517 257.461,234.304 261.523,233.087 265.585,231.864 269.647,230.636 273.171,229.565 273.708,229.382 277.77,227.992 281.832,226.598 285.894,225.2 289.956,223.8 293.648,222.523 294.018,222.379 298.08,220.782 302.142,219.185 306.204,217.587 310.266,215.988 311.546,215.482 314.328,214.224 318.39,212.387 322.452,210.553 326.513,208.722 327.136,208.44 330.575,206.631 334.637,204.501 338.699,202.38 340.577,201.398 342.761,200.043 346.823,197.529 350.885,195.035 351.989,194.357 354.947,192.131 359.009,189.102 361.42,187.315 363.071,185.744 367.133,181.915 368.891,180.274 371.195,177.286 374.374,173.232 375.257,171.389 377.79,166.19 379.027,159.149 377.87,152.107 375.257,147.219 374.043,145.066 371.195,142.084 367.133,138.058 367.097,138.024 363.071,135.289 359.009,132.662 356.293,130.982 354.947,130.333 350.885,128.442 346.823,126.633 342.761,124.903 340.41,123.941 338.699,123.363 334.637,122.041 330.575,120.773 326.513,119.559 322.452,118.396 318.39,117.284 316.929,116.899 314.328,116.313 310.266,115.433 306.204,114.591 302.142,113.787 298.08,113.02 294.018,112.287 289.956,111.59 285.894,110.927 281.832,110.297 278.846,109.858 277.77,109.718 273.708,109.216 269.647,108.741 265.585,108.292 261.523,107.87 257.461,107.473 253.399,107.101 249.337,106.753 245.275,106.43 241.213,106.13 237.151,105.854 233.089,105.6 229.027,105.369 224.965,105.16 220.903,104.972 216.842,104.806 212.78,104.661 208.718,104.536 204.656,104.431 200.594,104.346 196.532,104.281"/>
<polyline fill="none" stroke="#0000f0" stroke-width="1.0" points="196.532,279.575 200.594,278.869 200.669,278.856 204.656,278.107 208.718,277.337 212.78,276.56 216.842,275.776 220.903,274.985 224.965,274.188 229.027,273.384 233.089,272.573 236.863,271.814 237.151,271.752 241.213,270.869 245.275,269.979 249.337,269.082 253.399,268.18 257.461,267.272 261.523,266.358 265.585,265.438 268.499,264.773 269.647,264.492 273.708,263.489 277.77,262.481 281.832,261.467 285.894,260.448 289.956,259.424 294.018,258.394 296.618,257.731 298.08,257.33 302.142,256.207 306.204,255.079 310.266,253.947 314.328,252.81 318.39,251.669 321.86,250.69 322.452,250.509 326.513,249.262 330.575,248.011 334.637,246.756 338.699,245.498 342.761,244.236 344.645,243.648 346.823,242.91 350.885,241.527 354.947,240.143 359.009,238.755 363.071,237.365 365.279,236.606 367.133,235.912 371.195,234.383 375.257,232.854 379.318,231.323 383.38,229.792 383.979,229.565 387.442,228.124 391.504,226.433 395.566,224.742 399.628,223.053"/>
<polyline fill="none" stroke="#0000f0" stroke-width="1.0" points="399.628,90.7663 395.566,89.7935 391.504,88.8527 390.972,88.7328 387.442,88.0195 383.38,87.2247 379.318,86.4563 375.257,85.7139 371.195,84.997 367.133,84.3052 363.071,83.6382 359.009,82.9955 354.947,82.3768 350.885,81.7817 350.245,81.6912 346.823,81.2501 342.761,80.7467 338.699,80.2634 334.637,79.8001 330.575,79.3564 326.513,78.932 322.452,78.5268 318.39,78.1404 314.328,77.7725 310.266,77.4229 306.204,77.0914 302.142,76.7777 298.08,76.4815 294.018,76.2028 289.956,75.9411 285.894,75.6962 281.832,75.4681 277.77,75.2563 273.708,75.0608 269.647,74.8813 265.585,74.7175 263.726,74.6496 261.523,74.5751 257.461,74.4517 253.399,74.3423 249.337,74.2468 245.275,74.165 241.213,74.0968 237.151,74.0419 233.089,74.0003 229.027,73.9718 224.965,73.9561 220.903,73.9533 216.842,73.9631 212.78,73.9854 208.718,74.02 204.656,74.0668 200.594,74.1256 196.532,74.1964"/>
<polyline fill="none" stroke="#0063ff" stroke-width="1.0" points="196.532,302.611 200.594,301.95 204.656,301.283 208.718,300.61 212.482,299.981 212.78,299.928 216.842,299.204 220.903,298.473 224.965,297.737 229.027,296.994 233.089,296.246 237.151,295.492 241.213,294.733 245.275,293.968 249.337,293.197 250.682,292.939 253.399,292.39 257.461,291.562 261.523,290.728 265.585,289.889 269.647,289.045 273.708,288.196 277.77,287.341 281.832,286.481 284.569,285.898 285.894,285.599 289.956,284.675 294.018,283.747 298.08,282.814 302.142,281.876 306.204,280.933 310.266,279.985 314.328,279.033 315.078,278.856 318.39,278.027 322.452,277.004 326.513,275.977 330.575,274.946 334.637,273.911 338.699,272.871 342.761,271.827 342.81,271.814 346.823,270.71 350.885,269.589 354.947,268.464 359.009,267.334 363.071,266.202 367.133,265.065 368.171,264.773 371.195,263.866 375.257,262.643 379.318,261.417 383.38,260.188 387.442,258.956 391.47,257.731 391.504,257.72 395.566,256.392 399.628,255.061"/>
<polyline fill="none" stroke="#0063ff" stroke-width="1.0" points="399.628,58.6966 395.566,58.1935 391.504,57.7075 387.442,57.2382 383.38,56.7856 379.318,56.3493 375.257,55.9292 371.195,55.5251 367.133,55.137 363.071,54.7644 359.009,54.4073 354.947,54.0655 350.885,53.7388 348.101,53.5248 346.823,53.4332 342.761,53.1547 338.699,52.8898 334.637,52.6384 330.575,52.4002 326.513,52.1752 322.452,51.9631 318.39,51.764 314.328,51.5775 310.266,51.4037 306.204,51.2423 302.142,51.0932 298.08,50.9564 294.018,50.8316 289.956,50.7188 285.894,50.6179 281.832,50.5286 277.77,50.451 273.708,50.3848 269.647,50.33 265.585,50.2865 261.523,50.2542 257.461,50.2328 253.399,50.2224 249.337,50.2227 245.275,50.2339 241.213,50.2556 237.151,50.2878 233.089,50.3304 229.027,50.3833 224.965,50.4464 220.903,50.5196 216.842,50.6028 212.78,50.6959 208.718,50.7988 204.656,50.9115 200.594,51.0338 196.532,51.1656"/>
<polyline fill="none" stroke="#00d4ff" stroke-width="1.0" points="366.311,32.4 367.133,32.448 371.195,32.6966 375.257,32.9574 379.318,33.2305 383.38,33.5161 387.442,33.8143 391.504,34.1252 395.566,34.4489 399.628,34.7856"/>
<polyline fill="none" stroke="#00d4ff" stroke-width="1.0" points="196.532,322.08 200.594,321.461 202.901,321.106 204.656,320.823 208.718,320.161 212.78,319.495 216.842,318.823 220.903,318.145 224.965,317.462 229.027,316.774 233.089,316.08 237.151,315.382 241.213,314.678 244.729,314.064 245.275,313.964 249.337,313.214 253.399,312.459 257.461,311.698 261.523,310.933 265.585,310.163 269.647,309.388 273.708,308.607 277.77,307.823 281.832,307.033 281.886,307.022 285.894,306.198 289.956,305.357 294.018,304.512 298.08,303.663 302.142,302.808 306.204,301.949 310.266,301.086 314.328,300.218 315.431,299.981 318.39,299.312 322.452,298.389 326.513,297.461 330.575,296.529 334.637,295.593 338.699,294.653 342.761,293.709 346.055,292.939 346.823,292.75 350.885,291.745 354.947,290.736 359.009,289.723 363.071,288.707 367.133,287.686 371.195,286.662 374.212,285.898 375.257,285.619 379.318,284.528 383.38,283.434 387.442,282.336 391.504,281.235 395.566,280.131 399.628,279.023"/>
<polyline fill="none" stroke="#46ffb8" stroke-width="1.0" points="196.532,339.194 200.594,338.586 204.656,337.974 208.718,337.356 212.78,336.733 216.842,336.106 220.903,335.473 222.713,335.189 224.965,334.82 229.027,334.149 233.089,333.473 237.151,332.793 241.213,332.108 245.275,331.417 249.337,330.723 253.399,330.023 257.461,329.319 261.523,328.61 264.158,328.147 265.585,327.886 269.647,327.135 273.708,326.38 277.77,325.62 281.832,324.856 285.894,324.088 289.956,323.315 294.018,322.538 298.08,321.756 301.441,321.106 302.142,320.964 306.204,320.137 310.266,319.306 314.328,318.47 318.39,317.631 322.452,316.787 326.513,315.939 330.575,315.087 334.637,314.231 335.425,314.064 338.699,313.338 342.761,312.433 346.823,311.524 350.885,310.611 354.947,309.694 359.009,308.774 363.071,307.849 366.689,307.022 367.133,306.916 371.195,305.939 375.257,304.957 379.318,303.973 383.38,302.984 387.442,301.992 391.504,300.997 395.566,299.998 395.636,299.981 399.628,298.946"/>
<polyline fill="none" stroke="#b8ff46" stroke-width="1.0" points="196.532,354.695 200.594,354.101 204.656,353.502 208.718,352.898 212.78,352.29 216.842,351.677 220.903,351.059 224.965,350.437 229.027,349.811 232.494,349.272 233.089,349.176 237.151,348.514 241.213,347.849 245.275,347.178 249.337,346.503 253.399,345.824 257.461,345.141 261.523,344.453 265.585,343.76 269.647,343.064 273.708,342.363 274.472,342.23 277.77,341.634 281.832,340.896 285.894,340.153 289.956,339.406 294.018,338.655 298.08,337.9 302.142,337.141 306.204,336.378 310.266,335.611 312.485,335.189 314.328,334.825 318.39,334.017 322.452,333.205 326.513,332.389 330.575,331.569 334.637,330.746 338.699,329.918 342.761,329.087 346.823,328.252 347.329,328.147 350.885,327.381 354.947,326.503 359.009,325.62 363.071,324.734 367.133,323.844 371.195,322.951 375.257,322.054 379.318,321.153 379.532,321.106 383.38,320.211 387.442,319.264 391.504,318.313 395.566,317.358 399.628,316.4"/>
<polyline fill="none" stroke="#ffd400" stroke-width="1.0" points="196.532,368.942 200.594,368.362 204.656,367.777 208.718,367.188 212.78,366.594 216.842,365.997 220.903,365.395 224.965,364.788 229.027,364.178 233.089,363.563 234.449,363.355 237.151,362.928 241.213,362.282 245.275,361.631 249.337,360.976 253.399,360.316 257.461,359.653 261.523,358.986 265.585,358.314 269.647,357.639 273.708,356.959 277.544,356.314 277.77,356.274 281.832,355.56 285.894,354.842 289.956,354.121 294.018,353.395 298.08,352.665 302.142,351.932 306.204,351.194 310.266,350.453 314.328,349.708 316.692,349.272 318.39,348.947 322.452,348.166 326.513,347.38 330.575,346.591 334.637,345.798 338.699,345.001 342.761,344.201 346.823,343.397 350.885,342.589 352.68,342.23 354.947,341.76 359.009,340.913 363.071,340.063 367.133,339.209 371.195,338.351 375.257,337.491 379.318,336.626 383.38,335.758 386.034,335.189 387.442,334.875 391.504,333.965 395.566,333.052 399.628,332.135"/>
<polyline fill="none" stroke="#ff6300" stroke-width="1.0" points="196.532,382.194 200.594,381.628 204.656,381.058 208.718,380.483 212.78,379.905 216.842,379.322 220.903,378.735 224.965,378.144 229.027,377.549 229.777,377.438 233.089,376.933 237.151,376.309 241.213,375.681 245.275,375.049 249.337,374.413 253.399,373.773 257.461,373.129 261.523,372.482 265.585,371.83 269.647,371.175 273.708,370.515 274.433,370.397 277.77,369.833 281.832,369.142 285.894,368.448 289.956,367.75 294.018,367.048 298.08,366.343 302.142,365.633 306.204,364.92 310.266,364.204 314.328,363.484 315.047,363.355 318.39,362.738 322.452,361.984 326.513,361.227 330.575,360.466 334.637,359.702 338.699,358.934 342.761,358.163 346.823,357.388 350.885,356.609 352.419,356.314 354.947,355.81 359.009,354.995 363.071,354.178 367.133,353.357 371.195,352.533 375.257,351.705 379.318,350.874 383.38,350.04 387.105,349.272 387.442,349.2 391.504,348.328 395.566,347.452 399.628,346.574"/>
<polyline fill="none" stroke="#f00000" stroke-width="1.0" points="265.769,384.48 269.647,383.852 273.708,383.191 277.77,382.526 281.832,381.857 285.894,381.185 289.956,380.509 294.018,379.83 298.08,379.147 302.142,378.46 306.204,377.77 308.145,377.438 310.266,377.064 314.328,376.344 318.39,375.62 322.452,374.892 326.513,374.161 330.575,373.426 334.637,372.689 338.699,371.947 342.761,371.203 346.823,370.454 347.134,370.397 350.885,369.679 354.947,368.899 359.009,368.115 363.071,367.328 367.133,366.537 371.195,365.744 375.257,364.947 379.318,364.147 383.321,363.355 383.38,363.343 387.442,362.508 391.504,361.671 395.566,360.83 399.628,359.985"/>
<polyline fill="none" stroke="#7f0000" stroke-width="1.0" points="337.186,384.48 338.699,384.205 342.761,383.461 346.823,382.715 350.885,381.965 354.947,381.213 359.009,380.457 363.071,379.697 367.133,378.935 371.195,378.169 375.057,377.438 375.257,377.399 379.318,376.602 383.38,375.802 387.442,374.999 391.504,374.192 395.566,373.383 399.628,372.57"/>
</g>
</svg>
