<?xml version="1.0" encoding="UTF-8" standalone="no"?>
<svg xmlns="http://www.w3.org/2000/svg"
     xmlns:xlink="http://www.w3.org/1999/xlink"
     width="576px" height="432px" viewBox="0 0 576 432">
<title>glps_renderer figure</title>
<desc>
Creator: GL2PS 1.3.8, (C) 1999-2012 C. Geuzaine
For: Octave
CreationDate: Wed Jun  1 14:26:50 2016
</desc>
<defs>
</defs>
<g shape-rendering="crispEdges">
<polygon fill="#ffffff" points="186.521,384.48 409.639,384.48 186.521,32.4"/>
<polygon fill="#ffffff" points="409.639,384.48 409.639,32.4 186.521,32.4"/>
<polyline fill="none" stroke="#000000" stroke-width="0.5" stroke-dasharray="16,0" points="186.521,384.48 409.639,384.48"/>
<polyline fill="none" stroke="#000000" stroke-width="0.5" stroke-dasharray="16,0" points="186.521,32.4 409.639,32.4"/>
<polyline fill="none" stroke="#000000" stroke-width="0.5" stroke-dasharray="16,0" points="186.521,32.4 409.639,32.4"/>
<polyline fill="none" stroke="#000000" stroke-width="0.5" stroke-dasharray="16,0" points="186.521,384.48 409.639,384.48"/>
<polyline fill="none" stroke="#000000" stroke-width="0.5" stroke-dasharray="16,0" points="186.521,384.48 186.521,32.4"/>
<polyline fill="none" stroke="#000000" stroke-width="0.5" stroke-dasharray="16,0" points="409.639,384.48 409.639,32.4"/>
<polyline fill="none" stroke="#000000" stroke-width="0.5" stroke-dasharray="16,0" points="409.639,384.48 409.639,32.4"/>
<polyline fill="none" stroke="#000000" stroke-width="0.5" stroke-dasharray="16,0" points="186.521,384.48 186.521,32.4 186.521,32.4"/>
<polyline fill="none" stroke="#000000" stroke-width="0.5" stroke-dasharray="16,0" points="409.639,32.4 409.639,32.4"/>
<polyline fill="none" stroke="#000000" stroke-width="0.5" stroke-dasharray="16,0" points="409.639,384.48 409.639,384.48"/>
<polyline fill="none" stroke="#000000" stroke-width="0.5" stroke-dasharray="16,0" points="186.521,384.48 186.521,384.48"/>
<polyline fill="none" stroke="#000000" stroke-width="0.5" stroke-dasharray="16,0" points="210.177,384.48 210.177,380.015"/>
<polyline fill="none" stroke="#000000" stroke-width="0.5" stroke-dasharray="16,0" points="210.177,32.4 210.177,36.865"/>
<polyline fill="none" stroke="#000000" stroke-width="0.5" stroke-dasharray="16,0" points="266.837,384.48 266.837,380.015"/>
<polyline fill="none" stroke="#000000" stroke-width="0.5" stroke-dasharray="16,0" points="266.837,32.4 266.837,36.865"/>
<polyline fill="none" stroke="#000000" stroke-width="0.5" stroke-dasharray="16,0" points="323.497,384.48 323.497,380.015"/>
<polyline fill="none" stroke="#000000" stroke-width="0.5" stroke-dasharray="16,0" points="323.497,32.4 323.497,36.865"/>
<polyline fill="none" stroke="#000000" stroke-width="0.5" stroke-dasharray="16,0" points="380.157,384.48 380.157,380.015"/>
<polyline fill="none" stroke="#000000" stroke-width="0.5" stroke-dasharray="16,0" points="380.157,32.4 380.157,36.865"/>
<text fill="#000000" x="210.177" y="389.481" font-size="10" text-anchor="middle" baseline-shift="-10" font-family="Helvetica">-2</text>
<text fill="#000000" x="266.837" y="389.481" font-size="10" text-anchor="middle" baseline-shift="-10" font-family="Helvetica">0</text>
<text fill="#000000" x="323.497" y="389.481" font-size="10" text-anchor="middle" baseline-shift="-10" font-family="Helvetica">2</text>
<text fill="#000000" x="380.157" y="389.481" font-size="10" text-anchor="middle" baseline-shift="-10" font-family="Helvetica">4</text>
<polyline fill="none" stroke="#000000" stroke-width="0.5" stroke-dasharray="16,0" points="186.521,374.978 190.987,374.978"/>
<polyline fill="none" stroke="#000000" stroke-width="0.5" stroke-dasharray="16,0" points="409.639,374.978 405.172,374.978"/>
<polyline fill="none" stroke="#000000" stroke-width="0.5" stroke-dasharray="16,0" points="186.521,318.318 190.987,318.318"/>
<polyline fill="none" stroke="#000000" stroke-width="0.5" stroke-dasharray="16,0" points="409.639,318.318 405.172,318.318"/>
<polyline fill="none" stroke="#000000" stroke-width="0.5" stroke-dasharray="16,0" points="186.521,261.658 190.987,261.658"/>
<polyline fill="none" stroke="#000000" stroke-width="0.5" stroke-dasharray="16,0" points="409.639,261.658 405.172,261.658"/>
<polyline fill="none" stroke="#000000" stroke-width="0.5" stroke-dasharray="16,0" points="186.521,204.998 190.987,204.998"/>
<polyline fill="none" stroke="#000000" stroke-width="0.5" stroke-dasharray="16,0" points="409.639,204.998 405.172,204.998"/>
<polyline fill="none" stroke="#000000" stroke-width="0.5" stroke-dasharray="16,0" points="186.521,148.337 190.987,148.337"/>
<polyline fill="none" stroke="#000000" stroke-width="0.5" stroke-dasharray="16,0" points="409.639,148.337 405.172,148.337"/>
<polyline fill="none" stroke="#000000" stroke-width="0.5" stroke-dasharray="16,0" points="186.521,91.6772 190.987,91.6772"/>
<polyline fill="none" stroke="#000000" stroke-width="0.5" stroke-dasharray="16,0" points="409.639,91.6772 405.172,91.6772"/>
<polyline fill="none" stroke="#000000" stroke-width="0.5" stroke-dasharray="16,0" points="186.521,35.0171 190.987,35.0171"/>
<polyline fill="none" stroke="#000000" stroke-width="0.5" stroke-dasharray="16,0" points="409.639,35.0171 405.172,35.0171"/>
<text fill="#000000" x="181.518" y="374.978" font-size="10" text-anchor="end" baseline-shift="-5" font-family="Helvetica">-6</text>
<text fill="#000000" x="181.518" y="318.318" font-size="10" text-anchor="end" baseline-shift="-5" font-family="Helvetica">-4</text>
<text fill="#000000" x="181.518" y="261.658" font-size="10" text-anchor="end" baseline-shift="-5" font-family="Helvetica">-2</text>
<text fill="#000000" x="181.518" y="204.998" font-size="10" text-anchor="end" baseline-shift="-5" font-family="Helvetica">0</text>
<text fill="#000000" x="181.518" y="148.337" font-size="10" text-anchor="end" baseline-shift="-5" font-family="Helvetica">2</text>
<text fill="#000000" x="181.518" y="91.6772" font-size="10" text-anchor="end" baseline-shift="-5" font-family="Helvetica">4</text>
<text fill="#000000" x="181.518" y="35.0171" font-size="10" text-anchor="end" baseline-shift="-5" font-family="Helvetica">6</text>
<polyline fill="none" stroke="#00007f" stroke-width="0.5" points="186.521,248.164 190.983,247.701 195.446,247.214 199.908,246.702 204.371,246.167 208.833,245.608 213.295,245.024 217.758,244.417 222.22,243.787 223.167,243.648 226.682,243.074 231.145,242.319 235.607,241.538 240.069,240.732 244.532,239.901 248.994,239.045 253.456,238.164 257.919,237.259 261.046,236.606 262.381,236.293 266.844,235.217 271.306,234.113 275.768,232.984 280.231,231.828 284.693,230.645 288.683,229.565 289.155,229.419 293.618,228.007 298.08,226.567 302.542,225.098 307.005,223.602 310.16,222.523 311.467,222.003 315.929,220.195 320.392,218.356 324.854,216.487 327.215,215.482 329.316,214.413 333.779,212.109 338.241,209.772 340.746,208.44 342.704,207.153 347.166,204.177 351.286,201.398 351.628,201.096 356.091,197.104 359.131,194.357 360.553,192.505 364.499,187.315 365.015,186.098 367.463,180.274 368.063,173.232 366.238,166.19 365.015,164.185 361.852,159.149 360.553,157.838 356.091,153.464 354.665,152.107 351.628,149.988 347.166,146.964 344.28,145.066 342.704,144.246 338.241,141.99 333.779,139.801 330.042,138.024 329.316,137.738 324.854,136.03 320.392,134.374 315.929,132.771 311.467,131.219 310.767,130.982 307.005,129.898 302.542,128.654 298.08,127.452 293.618,126.291 289.155,125.172 284.693,124.094 284.036,123.941 280.231,123.165 275.768,122.29 271.306,121.45 266.844,120.644 262.381,119.873 257.919,119.135 253.456,118.431 248.994,117.76 244.532,117.122 242.886,116.899 240.069,116.559 235.607,116.049 231.145,115.567 226.682,115.114 222.22,114.69 217.758,114.294 213.295,113.926 208.833,113.586 204.371,113.274 199.908,112.99 195.446,112.733 190.983,112.503 186.521,112.301"/>
<polyline fill="none" stroke="#0000f0" stroke-width="0.5" points="186.521,276.361 190.983,275.997 195.446,275.615 199.908,275.217 204.371,274.8 208.833,274.367 213.295,273.916 217.758,273.449 222.22,272.964 226.682,272.462 231.145,271.944 232.221,271.814 235.607,271.376 240.069,270.781 244.532,270.167 248.994,269.536 253.456,268.887 257.919,268.221 262.381,267.537 266.844,266.835 271.306,266.116 275.768,265.379 279.359,264.773 280.231,264.613 284.693,263.778 289.155,262.924 293.618,262.052 298.08,261.161 302.542,260.253 307.005,259.326 311.467,258.381 314.48,257.731 315.929,257.391 320.392,256.322 324.854,255.234 329.316,254.127 333.779,253.002 338.241,251.857 342.704,250.695 342.722,250.69 347.166,249.397 351.628,248.08 356.091,246.742 360.553,245.386 365.015,244.009 366.168,243.648 369.478,242.501 373.94,240.934 378.402,239.346 382.865,237.737 385.959,236.606 387.327,236.048 391.789,234.201 396.252,232.332 400.714,230.441 402.758,229.565 405.176,228.39 409.639,226.196"/>
<polyline fill="none" stroke="#0000f0" stroke-width="0.5" points="409.639,121.361 405.176,119.476 400.714,117.633 398.898,116.899 396.252,115.956 391.789,114.399 387.327,112.877 382.865,111.391 378.402,109.939 378.145,109.858 373.94,108.66 369.478,107.419 365.015,106.209 360.553,105.029 356.091,103.878 351.862,102.816 351.628,102.763 347.166,101.772 342.704,100.808 338.241,99.8705 333.779,98.9587 329.316,98.0728 324.854,97.2128 320.392,96.3785 317.06,95.7744 315.929,95.5869 311.467,94.8689 307.005,94.1739 302.542,93.5018 298.08,92.8525 293.618,92.2259 289.155,91.6219 284.693,91.0403 280.231,90.4812 275.768,89.9443 271.306,89.4296 266.844,88.9369 264.91,88.7328 262.381,88.4865 257.919,88.0717 253.456,87.6769 248.994,87.302 244.532,86.9471 240.069,86.6119 235.607,86.2964 231.145,86.0006 226.682,85.7243 222.22,85.4675 217.758,85.23 213.295,85.0119 208.833,84.8129 204.371,84.6332 199.908,84.4725 195.446,84.3307 190.983,84.2079 186.521,84.1039"/>
<polyline fill="none" stroke="#0063ff" stroke-width="0.5" points="186.521,297.995 190.983,297.673 195.446,297.337 199.908,296.986 204.371,296.621 208.833,296.242 213.295,295.849 217.758,295.441 222.22,295.019 226.682,294.584 231.145,294.134 235.607,293.671 240.069,293.193 242.374,292.939 244.532,292.687 248.994,292.149 253.456,291.598 257.919,291.031 262.381,290.45 266.844,289.855 271.306,289.246 275.768,288.622 280.231,287.983 284.693,287.331 289.155,286.664 293.618,285.984 294.17,285.898 298.08,285.248 302.542,284.492 307.005,283.721 311.467,282.936 315.929,282.135 320.392,281.32 324.854,280.491 329.316,279.647 333.426,278.856 333.779,278.783 338.241,277.849 342.704,276.899 347.166,275.934 351.628,274.953 356.091,273.958 360.553,272.948 365.015,271.922 365.478,271.814 369.478,270.812 373.94,269.678 378.402,268.528 382.865,267.362 387.327,266.181 391.789,264.985 392.568,264.773 396.252,263.692 400.714,262.366 405.176,261.023 409.639,259.664"/>
<polyline fill="none" stroke="#0063ff" stroke-width="0.5" points="409.639,87.8745 405.176,86.7866 400.714,85.7217 396.252,84.6795 391.789,83.6602 387.327,82.6635 382.873,81.6912 382.865,81.6895 378.402,80.8072 373.94,79.9454 369.478,79.1042 365.015,78.2833 360.553,77.4828 356.091,76.7024 351.628,75.9422 347.166,75.2021 343.744,74.6496 342.704,74.4932 338.241,73.84 333.779,73.2052 329.316,72.5887 324.854,71.9904 320.392,71.4103 315.929,70.8483 311.467,70.3044 307.005,69.7784 302.542,69.2703 298.08,68.7801 293.618,68.3076 289.155,67.8529 286.656,67.608 284.693,67.4278 280.231,67.0343 275.768,66.6572 271.306,66.2964 266.844,65.9519 262.381,65.6236 257.919,65.3114 253.456,65.0154 248.994,64.7354 244.532,64.4713 240.069,64.2233 235.607,63.9911 231.145,63.7747 226.682,63.5741 222.22,63.3892 217.758,63.22 213.295,63.0664 208.833,62.9284 204.371,62.8058 199.908,62.6988 195.446,62.6071 190.983,62.5309 186.521,62.4699"/>
<polyline fill="none" stroke="#00d4ff" stroke-width="0.5" points="186.521,316.223 190.983,315.934 195.446,315.632 199.908,315.318 204.371,314.992 208.833,314.653 213.295,314.303 216.236,314.064 217.758,313.934 222.22,313.539 226.682,313.132 231.145,312.712 235.607,312.28 240.069,311.836 244.532,311.378 248.994,310.909 253.456,310.427 257.919,309.932 262.381,309.426 266.844,308.907 271.306,308.376 275.768,307.833 280.231,307.277 282.232,307.022 284.693,306.692 289.155,306.08 293.618,305.455 298.08,304.818 302.542,304.168 307.005,303.506 311.467,302.831 315.929,302.143 320.392,301.444 324.854,300.731 329.316,300.007 329.473,299.981 333.779,299.228 338.241,298.435 342.704,297.63 347.166,296.811 351.628,295.98 356.091,295.135 360.553,294.279 365.015,293.409 367.391,292.939 369.478,292.502 373.94,291.552 378.402,290.589 382.865,289.613 387.327,288.624 391.789,287.622 396.252,286.607 399.329,285.898 400.714,285.558 405.176,284.45 409.639,283.327"/>
<polyline fill="none" stroke="#00d4ff" stroke-width="0.5" points="409.639,64.2422 405.176,63.3914 400.714,62.5584 396.252,61.7434 391.789,60.9463 389.616,60.5664 387.327,60.1909 382.865,59.4749 378.402,58.7755 373.94,58.0925 369.478,57.4258 365.015,56.7756 360.553,56.1416 356.091,55.5239 351.628,54.9224 347.166,54.337 342.704,53.7677 340.745,53.5248 338.241,53.2318 333.779,52.7246 329.316,52.2323 324.854,51.7549 320.392,51.2925 315.929,50.8449 311.467,50.4121 307.005,49.994 302.542,49.5906 298.08,49.202 293.618,48.8279 289.155,48.4684 284.693,48.1234 280.231,47.7929 275.768,47.4769 271.306,47.1752 266.844,46.8879 262.381,46.6149 260.111,46.4832 257.919,46.3628 253.456,46.131 248.994,45.9127 244.532,45.7077 240.069,45.5161 235.607,45.3377 231.145,45.1726 226.682,45.0208 222.22,44.8822 217.758,44.7567 213.295,44.6443 208.833,44.545 204.371,44.4587 199.908,44.3855 195.446,44.3253 190.983,44.2779 186.521,44.2435"/>
<polyline fill="none" stroke="#46ffb8" stroke-width="0.5" points="300.95,32.4 302.542,32.5194 307.005,32.8668 311.467,33.2273 315.929,33.601 320.392,33.9879 324.854,34.388 329.316,34.8014 333.779,35.2281 338.241,35.6682 342.704,36.1216 347.166,36.5885 351.628,37.0689 356.091,37.5627 360.553,38.0701 365.015,38.5911 369.478,39.1257 372.05,39.4416 373.94,39.6863 378.402,40.2783 382.865,40.8847 387.327,41.5058 391.789,42.1414 396.252,42.7917 400.714,43.4567 405.176,44.1365 409.639,44.831"/>
<polyline fill="none" stroke="#46ffb8" stroke-width="0.5" points="186.521,332.278 190.983,332.002 195.446,331.715 199.908,331.416 204.371,331.107 208.833,330.786 213.295,330.454 217.758,330.112 222.22,329.758 226.682,329.394 231.145,329.018 235.607,328.632 240.069,328.235 241.027,328.147 244.532,327.811 248.994,327.373 253.456,326.923 257.919,326.461 262.381,325.989 266.844,325.505 271.306,325.01 275.768,324.504 280.231,323.988 284.693,323.46 289.155,322.921 293.618,322.371 298.08,321.81 302.542,321.238 303.556,321.106 307.005,320.633 311.467,320.01 315.929,319.375 320.392,318.729 324.854,318.072 329.316,317.404 333.779,316.724 338.241,316.034 342.704,315.332 347.166,314.619 350.587,314.064 351.628,313.886 356.091,313.113 360.553,312.328 365.015,311.532 369.478,310.724 373.94,309.905 378.402,309.075 382.865,308.233 387.327,307.38 389.169,307.022 391.789,306.487 396.252,305.564 400.714,304.629 405.176,303.682 409.639,302.723"/>
<polyline fill="none" stroke="#b8ff46" stroke-width="0.5" points="186.521,346.8 190.983,346.536 195.446,346.261 199.908,345.977 204.371,345.682 208.833,345.377 213.295,345.063 217.758,344.738 222.22,344.403 226.682,344.058 231.145,343.703 235.607,343.338 240.069,342.963 244.532,342.578 248.456,342.23 248.994,342.181 253.456,341.758 257.919,341.325 262.381,340.882 266.844,340.429 271.306,339.966 275.768,339.492 280.231,339.008 284.693,338.515 289.155,338.011 293.618,337.497 298.08,336.972 302.542,336.438 307.005,335.894 311.467,335.34 312.663,335.189 315.929,334.757 320.392,334.157 324.854,333.547 329.316,332.926 333.779,332.295 338.241,331.654 342.704,331.003 347.166,330.341 351.628,329.67 356.091,328.988 360.553,328.296 361.498,328.147 365.015,327.568 369.478,326.822 373.94,326.066 378.402,325.3 382.865,324.523 387.327,323.736 391.789,322.938 396.252,322.131 400.714,321.312 401.827,321.106 405.176,320.453 409.639,319.574"/>
<polyline fill="none" stroke="#ffd400" stroke-width="0.5" points="186.521,360.148 190.983,359.895 195.446,359.633 199.908,359.361 204.371,359.08 208.833,358.789 213.295,358.489 217.758,358.18 222.22,357.862 226.682,357.534 231.145,357.197 235.607,356.851 240.069,356.495 242.29,356.314 244.532,356.123 248.994,355.734 253.456,355.336 257.919,354.928 262.381,354.511 266.844,354.084 271.306,353.648 275.768,353.202 280.231,352.747 284.693,352.283 289.155,351.809 293.618,351.326 298.08,350.834 302.542,350.332 307.005,349.822 311.467,349.301 311.715,349.272 315.929,348.751 320.392,348.191 324.854,347.62 329.316,347.041 333.779,346.451 338.241,345.853 342.704,345.244 347.166,344.627 351.628,344 356.091,343.364 360.553,342.718 363.874,342.23 365.015,342.056 369.478,341.363 373.94,340.66 378.402,339.948 382.865,339.227 387.327,338.495 391.789,337.754 396.252,337.004 400.714,336.244 405.176,335.475 406.816,335.189 409.639,334.674"/>
<polyline fill="none" stroke="#ff6300" stroke-width="0.5" points="186.521,372.579 190.983,372.336 195.446,372.085 199.908,371.824 204.371,371.555 208.833,371.278 213.295,370.991 217.758,370.696 222.154,370.397 222.22,370.392 226.682,370.068 231.145,369.735 235.607,369.393 240.069,369.042 244.532,368.683 248.994,368.314 253.456,367.937 257.919,367.551 262.381,367.156 266.844,366.753 271.306,366.34 275.768,365.919 280.231,365.489 284.693,365.051 289.155,364.604 293.618,364.148 298.08,363.683 301.176,363.355 302.542,363.205 307.005,362.705 311.467,362.196 315.929,361.678 320.392,361.151 324.854,360.615 329.316,360.071 333.779,359.517 338.241,358.955 342.704,358.384 347.166,357.805 351.628,357.217 356.091,356.62 358.344,356.314 360.553,356.002 365.015,355.363 369.478,354.716 373.94,354.059 378.402,353.394 382.865,352.719 387.327,352.036 391.789,351.344 396.252,350.643 400.714,349.933 404.818,349.272 405.176,349.212 409.639,348.455"/>
<polyline fill="none" stroke="#f00000" stroke-width="0.5" points="186.521,384.273 190.983,384.031 195.446,383.781 199.908,383.522 204.371,383.255 208.833,382.979 213.295,382.695 217.758,382.403 222.22,382.102 226.682,381.793 231.145,381.476 235.607,381.151 240.069,380.817 244.532,380.475 248.994,380.124 253.456,379.766 257.919,379.399 262.381,379.024 266.844,378.641 271.306,378.25 275.768,377.85 280.231,377.443 280.275,377.438 284.693,377.012 289.155,376.573 293.618,376.126 298.08,375.67 302.542,375.206 307.005,374.734 311.467,374.253 315.929,373.764 320.392,373.267 324.854,372.762 329.316,372.248 333.779,371.726 338.241,371.196 342.704,370.658 344.834,370.397 347.166,370.101 351.628,369.526 356.091,368.943 360.553,368.351 365.015,367.751 369.478,367.142 373.94,366.526 378.402,365.9 382.865,365.267 387.327,364.625 391.789,363.975 395.994,363.355 396.252,363.316 400.714,362.624 405.176,361.924 409.639,361.215"/>
<polyline fill="none" stroke="#7f0000" stroke-width="0.5" points="322.514,384.48 324.854,384.22 329.316,383.717 333.779,383.206 338.241,382.687 342.704,382.16 347.166,381.625 351.628,381.082 356.091,380.532 360.553,379.973 365.015,379.407 369.478,378.833 373.94,378.251 378.402,377.661 380.064,377.438 382.865,377.05 387.327,376.424 391.789,375.789 396.252,375.146 400.714,374.496 405.176,373.837 409.639,373.171"/>
</g>
</svg>
