<?xml version="1.0" encoding="UTF-8" standalone="no"?>
<svg xmlns="http://www.w3.org/2000/svg"
     xmlns:xlink="http://www.w3.org/1999/xlink"
     width="576px" height="432px" viewBox="0 0 576 432">
<title>glps_renderer figure</title>
<desc>
Creator: GL2PS 1.3.8, (C) 1999-2012 C. Geuzaine
For: Octave
CreationDate: Wed Jun  1 14:26:51 2016
</desc>
<defs>
</defs>
<g shape-rendering="crispEdges">
<polygon fill="#ffffff" points="186.521,384.48 409.639,384.48 186.521,32.4"/>
<polygon fill="#ffffff" points="409.639,384.48 409.639,32.4 186.521,32.4"/>
<polyline fill="none" stroke="#000000" stroke-width="0.5" stroke-dasharray="16,0" points="186.521,384.48 409.639,384.48"/>
<polyline fill="none" stroke="#000000" stroke-width="0.5" stroke-dasharray="16,0" points="186.521,32.4 409.639,32.4"/>
<polyline fill="none" stroke="#000000" stroke-width="0.5" stroke-dasharray="16,0" points="186.521,32.4 409.639,32.4"/>
<polyline fill="none" stroke="#000000" stroke-width="0.5" stroke-dasharray="16,0" points="186.521,384.48 409.639,384.48"/>
<polyline fill="none" stroke="#000000" stroke-width="0.5" stroke-dasharray="16,0" points="186.521,384.48 186.521,32.4"/>
<polyline fill="none" stroke="#000000" stroke-width="0.5" stroke-dasharray="16,0" points="409.639,384.48 409.639,32.4"/>
<polyline fill="none" stroke="#000000" stroke-width="0.5" stroke-dasharray="16,0" points="409.639,384.48 409.639,32.4"/>
<polyline fill="none" stroke="#000000" stroke-width="0.5" stroke-dasharray="16,0" points="186.521,384.48 186.521,32.4 186.521,32.4"/>
<polyline fill="none" stroke="#000000" stroke-width="0.5" stroke-dasharray="16,0" points="409.639,32.4 409.639,32.4"/>
<polyline fill="none" stroke="#000000" stroke-width="0.5" stroke-dasharray="16,0" points="409.639,384.48 409.639,384.48"/>
<polyline fill="none" stroke="#000000" stroke-width="0.5" stroke-dasharray="16,0" points="186.521,384.48 186.521,384.48"/>
<polyline fill="none" stroke="#000000" stroke-width="0.5" stroke-dasharray="16,0" points="210.177,384.48 210.177,380.015"/>
<polyline fill="none" stroke="#000000" stroke-width="0.5" stroke-dasharray="16,0" points="210.177,32.4 210.177,36.865"/>
<polyline fill="none" stroke="#000000" stroke-width="0.5" stroke-dasharray="16,0" points="266.837,384.48 266.837,380.015"/>
<polyline fill="none" stroke="#000000" stroke-width="0.5" stroke-dasharray="16,0" points="266.837,32.4 266.837,36.865"/>
<polyline fill="none" stroke="#000000" stroke-width="0.5" stroke-dasharray="16,0" points="323.497,384.48 323.497,380.015"/>
<polyline fill="none" stroke="#000000" stroke-width="0.5" stroke-dasharray="16,0" points="323.497,32.4 323.497,36.865"/>
<polyline fill="none" stroke="#000000" stroke-width="0.5" stroke-dasharray="16,0" points="380.157,384.48 380.157,380.015"/>
<polyline fill="none" stroke="#000000" stroke-width="0.5" stroke-dasharray="16,0" points="380.157,32.4 380.157,36.865"/>
<text fill="#000000" x="210.177" y="389.481" font-size="10" text-anchor="middle" baseline-shift="-10" font-family="Helvetica">-2</text>
<text fill="#000000" x="266.837" y="389.481" font-size="10" text-anchor="middle" baseline-shift="-10" font-family="Helvetica">0</text>
<text fill="#000000" x="323.497" y="389.481" font-size="10" text-anchor="middle" baseline-shift="-10" font-family="Helvetica">2</text>
<text fill="#000000" x="380.157" y="389.481" font-size="10" text-anchor="middle" baseline-shift="-10" font-family="Helvetica">4</text>
<polyline fill="none" stroke="#000000" stroke-width="0.5" stroke-dasharray="16,0" points="186.521,374.978 190.987,374.978"/>
<polyline fill="none" stroke="#000000" stroke-width="0.5" stroke-dasharray="16,0" points="409.639,374.978 405.172,374.978"/>
<polyline fill="none" stroke="#000000" stroke-width="0.5" stroke-dasharray="16,0" points="186.521,318.318 190.987,318.318"/>
<polyline fill="none" stroke="#000000" stroke-width="0.5" stroke-dasharray="16,0" points="409.639,318.318 405.172,318.318"/>
<polyline fill="none" stroke="#000000" stroke-width="0.5" stroke-dasharray="16,0" points="186.521,261.658 190.987,261.658"/>
<polyline fill="none" stroke="#000000" stroke-width="0.5" stroke-dasharray="16,0" points="409.639,261.658 405.172,261.658"/>
<polyline fill="none" stroke="#000000" stroke-width="0.5" stroke-dasharray="16,0" points="186.521,204.998 190.987,204.998"/>
<polyline fill="none" stroke="#000000" stroke-width="0.5" stroke-dasharray="16,0" points="409.639,204.998 405.172,204.998"/>
<polyline fill="none" stroke="#000000" stroke-width="0.5" stroke-dasharray="16,0" points="186.521,148.337 190.987,148.337"/>
<polyline fill="none" stroke="#000000" stroke-width="0.5" stroke-dasharray="16,0" points="409.639,148.337 405.172,148.337"/>
<polyline fill="none" stroke="#000000" stroke-width="0.5" stroke-dasharray="16,0" points="186.521,91.6772 190.987,91.6772"/>
<polyline fill="none" stroke="#000000" stroke-width="0.5" stroke-dasharray="16,0" points="409.639,91.6772 405.172,91.6772"/>
<polyline fill="none" stroke="#000000" stroke-width="0.5" stroke-dasharray="16,0" points="186.521,35.0171 190.987,35.0171"/>
<polyline fill="none" stroke="#000000" stroke-width="0.5" stroke-dasharray="16,0" points="409.639,35.0171 405.172,35.0171"/>
<text fill="#000000" x="181.518" y="374.978" font-size="10" text-anchor="end" baseline-shift="-5" font-family="Helvetica">-6</text>
<text fill="#000000" x="181.518" y="318.318" font-size="10" text-anchor="end" baseline-shift="-5" font-family="Helvetica">-4</text>
<text fill="#000000" x="181.518" y="261.658" font-size="10" text-anchor="end" baseline-shift="-5" font-family="Helvetica">-2</text>
<text fill="#000000" x="181.518" y="204.998" font-size="10" text-anchor="end" baseline-shift="-5" font-family="Helvetica">0</text>
<text fill="#000000" x="181.518" y="148.337" font-size="10" text-anchor="end" baseline-shift="-5" font-family="Helvetica">2</text>
<text fill="#000000" x="181.518" y="91.6772" font-size="10" text-anchor="end" baseline-shift="-5" font-family="Helvetica">4</text>
<text fill="#000000" x="181.518" y="35.0171" font-size="10" text-anchor="end" baseline-shift="-5" font-family="Helvetica">6</text>
<polyline fill="none" stroke="#00007f" stroke-width="0.5" points="186.521,244.732 190.983,243.769 191.543,243.648 195.446,242.713 199.908,241.644 204.371,240.576 208.833,239.507 213.295,238.439 217.758,237.37 220.947,236.606 222.22,236.265 226.682,235.067 231.145,233.87 235.607,232.673 240.069,231.477 244.532,230.281 247.204,229.565 248.994,229.02 253.456,227.662 257.919,226.305 262.381,224.95 266.844,223.595 270.378,222.523 271.306,222.198 275.768,220.634 280.231,219.072 284.693,217.512 289.155,215.954 290.509,215.482 293.618,214.199 298.08,212.36 302.542,210.525 307.005,208.695 307.625,208.44 311.467,206.516 315.929,204.288 320.392,202.066 321.734,201.398 324.854,199.411 329.316,196.58 332.832,194.357 333.779,193.526 338.241,189.624 340.895,187.315 342.704,184.752 345.884,180.274 347.166,175.404 347.742,173.232 347.166,170.213 346.389,166.19 342.704,160.607 341.729,159.149 338.241,156.092 333.779,152.228 333.638,152.107 329.316,149.479 324.854,146.793 321.959,145.066 320.392,144.341 315.929,142.292 311.467,140.261 307.005,138.247 306.507,138.024 302.542,136.57 298.08,134.946 293.618,133.334 289.155,131.734 287.046,130.982 284.693,130.273 280.231,128.935 275.768,127.606 271.306,126.287 266.844,124.976 263.295,123.941 262.381,123.709 257.919,122.585 253.456,121.468 248.994,120.359 244.532,119.256 240.069,118.16 235.607,117.072 234.896,116.899 231.145,116.094 226.682,115.142 222.22,114.196 217.758,113.255 213.295,112.32 208.833,111.391 204.371,110.468 201.405,109.858 199.908,109.581 195.446,108.762 190.983,107.947 186.521,107.137"/>
<polyline fill="none" stroke="#0000f0" stroke-width="0.5" points="186.521,273.226 190.983,272.509 195.306,271.814 195.446,271.79 199.908,271.018 204.371,270.245 208.833,269.472 213.295,268.698 217.758,267.924 222.22,267.149 226.682,266.374 231.145,265.598 235.607,264.822 235.888,264.773 240.069,263.986 244.532,263.145 248.994,262.304 253.456,261.463 257.919,260.622 262.381,259.78 266.844,258.937 271.306,258.095 273.228,257.731 275.768,257.209 280.231,256.292 284.693,255.374 289.155,254.456 293.618,253.538 298.08,252.619 302.542,251.701 307.005,250.782 307.451,250.69 311.467,249.783 315.929,248.776 320.392,247.769 324.854,246.762 329.316,245.755 333.779,244.748 338.241,243.741 338.651,243.648 342.704,242.638 347.166,241.525 351.628,240.413 356.091,239.301 360.553,238.19 365.015,237.078 366.908,236.606 369.478,235.893 373.94,234.654 378.402,233.415 382.865,232.177 387.327,230.94 391.789,229.703 392.288,229.565 396.252,228.325 400.714,226.93 405.176,225.536 409.639,224.144"/>
<polyline fill="none" stroke="#0000f0" stroke-width="0.5" points="409.639,118.643 405.176,117.342 403.65,116.899 400.714,116.152 396.252,115.022 391.789,113.9 387.327,112.783 382.865,111.674 378.402,110.571 375.501,109.858 373.94,109.515 369.478,108.542 365.015,107.574 360.553,106.611 356.091,105.654 351.628,104.703 347.166,103.757 342.705,102.816 342.704,102.816 338.241,101.97 333.779,101.128 329.316,100.292 324.854,99.4596 320.392,98.632 315.929,97.8089 311.467,96.9903 307.005,96.1763 304.791,95.7744 302.542,95.402 298.08,94.6665 293.618,93.935 289.155,93.2073 284.693,92.4835 280.231,91.7636 275.768,91.0475 271.306,90.3353 266.844,89.627 262.381,88.9224 261.175,88.7328 257.919,88.262 253.456,87.62 248.994,86.9813 244.532,86.346 240.069,85.7141 235.607,85.0855 231.145,84.4602 226.682,83.8383 222.22,83.2197 217.758,82.6044 213.295,81.9924 211.089,81.6912 208.833,81.4059 204.371,80.8442 199.908,80.2855 195.446,79.7297 190.983,79.1768 186.521,78.6269"/>
<polyline fill="none" stroke="#0063ff" stroke-width="0.5" points="186.521,295.087 190.983,294.479 195.446,293.871 199.908,293.262 202.272,292.939 204.371,292.635 208.833,291.987 213.295,291.339 217.758,290.69 222.22,290.04 226.682,289.39 231.145,288.74 235.607,288.088 240.069,287.436 244.532,286.784 248.994,286.131 250.585,285.898 253.456,285.45 257.919,284.753 262.381,284.055 266.844,283.357 271.306,282.659 275.768,281.959 280.231,281.26 284.693,280.559 289.155,279.859 293.618,279.157 295.533,278.856 298.08,278.428 302.542,277.677 307.005,276.925 311.467,276.173 315.929,275.421 320.392,274.668 324.854,273.914 329.316,273.161 333.779,272.406 337.276,271.814 338.241,271.639 342.704,270.828 347.166,270.017 351.628,269.205 356.091,268.393 360.553,267.58 365.015,266.767 369.478,265.954 373.94,265.14 375.95,264.773 378.402,264.29 382.865,263.411 387.327,262.532 391.789,261.653 396.252,260.773 400.714,259.893 405.176,259.013 409.639,258.132"/>
<polyline fill="none" stroke="#0063ff" stroke-width="0.5" points="409.639,84.705 405.176,83.9705 400.714,83.2397 396.252,82.5127 391.789,81.7892 391.182,81.6912 387.327,81.1162 382.865,80.4538 378.402,79.7947 373.94,79.1388 369.478,78.4862 365.015,77.8368 360.553,77.1906 356.091,76.5476 351.628,75.9078 347.166,75.2712 342.787,74.6496 342.704,74.6386 338.241,74.0521 333.779,73.4683 329.316,72.8875 324.854,72.3094 320.392,71.7343 315.929,71.162 311.467,70.5924 307.005,70.0258 302.542,69.4619 298.08,68.9008 293.618,68.3426 289.155,67.7871 287.71,67.608 284.693,67.2584 280.231,66.7437 275.768,66.2316 271.306,65.722 266.844,65.2148 262.381,64.7103 257.919,64.2082 253.456,63.7086 248.994,63.2116 244.532,62.717 240.069,62.2249 235.607,61.7353 231.145,61.2482 226.682,60.7635 224.859,60.5664 222.22,60.2983 217.758,59.8471 213.295,59.3982 208.833,58.9515 204.371,58.5071 199.908,58.0649 195.446,57.625 190.983,57.1873 186.521,56.7518"/>
<polyline fill="none" stroke="#00d4ff" stroke-width="0.5" points="186.521,313.553 190.983,312.996 195.446,312.439 199.908,311.881 204.371,311.323 208.833,310.764 213.295,310.204 217.758,309.644 222.22,309.083 226.682,308.522 231.145,307.96 235.607,307.397 238.576,307.022 240.069,306.824 244.532,306.229 248.994,305.634 253.456,305.038 257.919,304.441 262.381,303.844 266.844,303.246 271.306,302.648 275.768,302.049 280.231,301.449 284.693,300.849 289.155,300.248 291.138,299.981 293.618,299.628 298.08,298.991 302.542,298.354 307.005,297.716 311.467,297.078 315.929,296.439 320.392,295.8 324.854,295.16 329.316,294.52 333.779,293.879 338.241,293.237 340.311,292.939 342.704,292.574 347.166,291.893 351.628,291.211 356.091,290.528 360.553,289.845 365.015,289.161 369.478,288.477 373.94,287.793 378.402,287.108 382.865,286.422 386.273,285.898 387.327,285.725 391.789,284.995 396.252,284.264 400.714,283.532 405.176,282.8 409.639,282.068"/>
<polyline fill="none" stroke="#00d4ff" stroke-width="0.5" points="409.639,60.6618 408.892,60.5664 405.176,60.1213 400.714,59.5891 396.252,59.0593 391.789,58.532 387.327,58.0072 382.865,57.4848 378.402,56.9648 373.94,56.4473 369.478,55.9323 365.015,55.4196 360.553,54.9093 356.091,54.4015 351.628,53.896 348.336,53.5248 347.166,53.4005 342.704,52.9286 338.241,52.4589 333.779,51.9914 329.316,51.5261 324.854,51.0629 320.392,50.602 315.929,50.1432 311.467,49.6866 307.005,49.2322 302.542,48.78 298.08,48.33 293.618,47.8821 289.155,47.4363 284.693,46.9927 280.231,46.5513 279.54,46.4832 275.768,46.1319 271.306,45.7182 266.844,45.3064 262.381,44.8967 257.919,44.4889 253.456,44.0831 248.994,43.6792 244.532,43.2773 240.069,42.8774 235.607,42.4795 231.145,42.0835 226.682,41.6894 222.22,41.2973 217.758,40.9071 213.295,40.5189 208.833,40.1326 204.371,39.7482 200.794,39.4416 199.908,39.3696 195.446,39.0082 190.983,38.6487 186.521,38.2909"/>
<polyline fill="none" stroke="#46ffb8" stroke-width="0.5" points="318.468,32.4 320.392,32.5724 324.854,32.9741 329.316,33.3777 333.779,33.7833 338.241,34.1907 342.704,34.5999 347.166,35.0111 351.628,35.4243 356.091,35.8393 360.553,36.2562 365.015,36.675 369.478,37.0958 373.94,37.5185 378.402,37.9431 382.865,38.3696 387.327,38.7981 391.789,39.2285 393.99,39.4416 396.252,39.6729 400.714,40.131 405.176,40.5911 409.639,41.0534"/>
<polyline fill="none" stroke="#46ffb8" stroke-width="0.5" points="186.521,329.777 190.983,329.287 195.446,328.796 199.908,328.304 201.332,328.147 204.371,327.796 208.833,327.28 213.295,326.763 217.758,326.246 222.22,325.728 226.682,325.209 231.145,324.69 235.607,324.17 240.069,323.65 244.532,323.128 248.994,322.607 253.456,322.084 257.919,321.561 261.804,321.106 262.381,321.035 266.844,320.485 271.306,319.934 275.768,319.383 280.231,318.831 284.693,318.279 289.155,317.726 293.618,317.173 298.08,316.619 302.542,316.064 307.005,315.509 311.467,314.953 315.929,314.396 318.592,314.064 320.392,313.828 324.854,313.242 329.316,312.655 333.779,312.068 338.241,311.48 342.704,310.891 347.166,310.302 351.628,309.712 356.091,309.122 360.553,308.531 365.015,307.94 369.478,307.348 371.929,307.022 373.94,306.741 378.402,306.116 382.865,305.491 387.327,304.865 391.789,304.239 396.252,303.612 400.714,302.984 405.176,302.356 409.639,301.727"/>
<polyline fill="none" stroke="#b8ff46" stroke-width="0.5" points="186.521,344.458 190.983,344.001 195.446,343.542 199.908,343.084 204.371,342.624 208.189,342.23 208.833,342.161 213.295,341.681 217.758,341.2 222.22,340.718 226.682,340.236 231.145,339.753 235.607,339.269 240.069,338.785 244.532,338.301 248.994,337.815 253.456,337.329 257.919,336.843 262.381,336.356 266.844,335.868 271.306,335.38 273.049,335.189 275.768,334.878 280.231,334.366 284.693,333.855 289.155,333.342 293.618,332.829 298.08,332.315 302.542,331.801 307.005,331.286 311.467,330.771 315.929,330.255 320.392,329.738 324.854,329.221 329.316,328.703 333.779,328.185 334.103,328.147 338.241,327.644 342.704,327.1 347.166,326.556 351.628,326.011 356.091,325.466 360.553,324.92 365.015,324.374 369.478,323.827 373.94,323.279 378.402,322.731 382.865,322.182 387.327,321.633 391.606,321.106 391.789,321.082 396.252,320.505 400.714,319.927 405.176,319.349 409.639,318.771"/>
<polyline fill="none" stroke="#ffd400" stroke-width="0.5" points="186.521,357.969 190.983,357.54 195.446,357.11 199.908,356.68 203.697,356.314 204.371,356.246 208.833,355.797 213.295,355.348 217.758,354.898 222.22,354.448 226.682,353.997 231.145,353.545 235.607,353.093 240.069,352.64 244.532,352.186 248.994,351.733 253.456,351.278 257.919,350.823 262.381,350.367 266.844,349.911 271.306,349.454 273.08,349.272 275.768,348.985 280.231,348.508 284.693,348.031 289.155,347.553 293.618,347.074 298.08,346.595 302.542,346.116 307.005,345.635 311.467,345.155 315.929,344.673 320.392,344.191 324.854,343.709 329.316,343.225 333.779,342.742 338.241,342.257 338.49,342.23 342.704,341.753 347.166,341.247 351.628,340.741 356.091,340.234 360.553,339.726 365.015,339.218 369.478,338.709 373.94,338.199 378.402,337.69 382.865,337.179 387.327,336.668 391.789,336.156 396.252,335.644 400.214,335.189 400.714,335.129 405.176,334.593 409.639,334.057"/>
<polyline fill="none" stroke="#ff6300" stroke-width="0.5" points="186.521,370.559 188.315,370.397 190.983,370.146 195.446,369.726 199.908,369.306 204.371,368.885 208.833,368.463 213.295,368.041 217.758,367.618 222.22,367.194 226.682,366.771 231.145,366.346 235.607,365.921 240.069,365.495 244.532,365.069 248.994,364.642 253.456,364.215 257.919,363.787 262.381,363.359 262.416,363.355 266.844,362.913 271.306,362.467 275.768,362.021 280.231,361.574 284.693,361.126 289.155,360.678 293.618,360.23 298.08,359.78 302.542,359.33 307.005,358.88 311.467,358.429 315.929,357.978 320.392,357.526 324.854,357.073 329.316,356.62 332.327,356.314 333.779,356.16 338.241,355.688 342.704,355.216 347.166,354.742 351.628,354.269 356.091,353.794 360.553,353.319 365.015,352.844 369.478,352.368 373.94,351.892 378.402,351.414 382.865,350.937 387.327,350.459 391.789,349.98 396.252,349.501 398.379,349.272 400.714,349.011 405.176,348.511 409.639,348.011"/>
<polyline fill="none" stroke="#f00000" stroke-width="0.5" points="186.521,382.342 190.983,381.946 195.446,381.55 199.908,381.153 204.371,380.756 208.833,380.358 213.295,379.959 217.758,379.56 222.22,379.16 226.682,378.76 231.145,378.359 235.607,377.958 240.069,377.556 241.376,377.438 244.532,377.144 248.994,376.727 253.456,376.309 257.919,375.891 262.381,375.472 266.844,375.052 271.306,374.632 275.768,374.212 280.231,373.791 284.693,373.369 289.155,372.947 293.618,372.524 298.08,372.101 302.542,371.677 307.005,371.253 311.467,370.828 315.929,370.403 315.993,370.397 320.392,369.962 324.854,369.52 329.316,369.077 333.779,368.634 338.241,368.19 342.704,367.746 347.166,367.302 351.628,366.856 356.091,366.411 360.553,365.964 365.015,365.517 369.478,365.07 373.94,364.622 378.402,364.173 382.865,363.724 386.529,363.355 387.327,363.272 391.789,362.805 396.252,362.337 400.714,361.869 405.176,361.401 409.639,360.932"/>
<polyline fill="none" stroke="#7f0000" stroke-width="0.5" points="289.697,384.48 293.618,384.117 298.08,383.703 302.542,383.288 307.005,382.873 311.467,382.458 315.929,382.042 320.392,381.625 324.854,381.208 329.316,380.791 333.779,380.372 338.241,379.954 342.704,379.534 347.166,379.115 351.628,378.694 356.091,378.274 360.553,377.852 364.93,377.438 365.015,377.43 369.478,376.993 373.94,376.555 378.402,376.117 382.865,375.678 387.327,375.239 391.789,374.799 396.252,374.359 400.714,373.918 405.176,373.477 409.639,373.035"/>
</g>
</svg>
