<?xml version="1.0" encoding="UTF-8" standalone="no"?>
<svg xmlns="http://www.w3.org/2000/svg"
     xmlns:xlink="http://www.w3.org/1999/xlink"
     width="576px" height="432px" viewBox="0 0 576 432">
<title>glps_renderer figure</title>
<desc>
Creator: GL2PS 1.3.8, (C) 1999-2012 C. Geuzaine
For: Octave
CreationDate: Wed Jun  1 14:37:30 2016
</desc>
<defs>
</defs>
<g shape-rendering="crispEdges">
<polygon fill="#ffffff" points="196.532,384.48 399.628,384.48 196.532,32.4"/>
<polygon fill="#ffffff" points="399.628,384.48 399.628,32.4 196.532,32.4"/>
<polyline fill="none" stroke="#000000" stroke-width="0.5" stroke-dasharray="16,0" points="196.532,384.48 399.628,384.48"/>
<polyline fill="none" stroke="#000000" stroke-width="0.5" stroke-dasharray="16,0" points="196.532,32.4 399.628,32.4"/>
<polyline fill="none" stroke="#000000" stroke-width="0.5" stroke-dasharray="16,0" points="196.532,32.4 399.628,32.4"/>
<polyline fill="none" stroke="#000000" stroke-width="0.5" stroke-dasharray="16,0" points="196.532,384.48 399.628,384.48"/>
<polyline fill="none" stroke="#000000" stroke-width="0.5" stroke-dasharray="16,0" points="196.532,384.48 196.532,32.4"/>
<polyline fill="none" stroke="#000000" stroke-width="0.5" stroke-dasharray="16,0" points="399.628,384.48 399.628,32.4"/>
<polyline fill="none" stroke="#000000" stroke-width="0.5" stroke-dasharray="16,0" points="399.628,384.48 399.628,32.4"/>
<polyline fill="none" stroke="#000000" stroke-width="0.5" stroke-dasharray="16,0" points="196.532,384.48 196.532,32.4 196.532,32.4"/>
<polyline fill="none" stroke="#000000" stroke-width="0.5" stroke-dasharray="16,0" points="399.628,32.4 399.628,32.4"/>
<polyline fill="none" stroke="#000000" stroke-width="0.5" stroke-dasharray="16,0" points="399.628,384.48 399.628,384.48"/>
<polyline fill="none" stroke="#000000" stroke-width="0.5" stroke-dasharray="16,0" points="196.532,384.48 196.532,384.48"/>
<polyline fill="none" stroke="#000000" stroke-width="0.5" stroke-dasharray="16,0" points="217.89,384.48 217.89,380.015"/>
<polyline fill="none" stroke="#000000" stroke-width="0.5" stroke-dasharray="16,0" points="217.89,32.4 217.89,36.865"/>
<polyline fill="none" stroke="#000000" stroke-width="0.5" stroke-dasharray="16,0" points="270.097,384.48 270.097,380.015"/>
<polyline fill="none" stroke="#000000" stroke-width="0.5" stroke-dasharray="16,0" points="270.097,32.4 270.097,36.865"/>
<polyline fill="none" stroke="#000000" stroke-width="0.5" stroke-dasharray="16,0" points="322.303,384.48 322.303,380.015"/>
<polyline fill="none" stroke="#000000" stroke-width="0.5" stroke-dasharray="16,0" points="322.303,32.4 322.303,36.865"/>
<polyline fill="none" stroke="#000000" stroke-width="0.5" stroke-dasharray="16,0" points="374.509,384.48 374.509,380.015"/>
<polyline fill="none" stroke="#000000" stroke-width="0.5" stroke-dasharray="16,0" points="374.509,32.4 374.509,36.865"/>
<text fill="#000000" x="217.89" y="389.481" font-size="10" text-anchor="middle" baseline-shift="-10" font-family="Helvetica">-2</text>
<text fill="#000000" x="270.097" y="389.481" font-size="10" text-anchor="middle" baseline-shift="-10" font-family="Helvetica">0</text>
<text fill="#000000" x="322.303" y="389.481" font-size="10" text-anchor="middle" baseline-shift="-10" font-family="Helvetica">2</text>
<text fill="#000000" x="374.509" y="389.481" font-size="10" text-anchor="middle" baseline-shift="-10" font-family="Helvetica">4</text>
<polyline fill="none" stroke="#000000" stroke-width="0.5" stroke-dasharray="16,0" points="196.532,351.806 200.998,351.806"/>
<polyline fill="none" stroke="#000000" stroke-width="0.5" stroke-dasharray="16,0" points="399.628,351.806 395.162,351.806"/>
<polyline fill="none" stroke="#000000" stroke-width="0.5" stroke-dasharray="16,0" points="196.532,299.599 200.998,299.599"/>
<polyline fill="none" stroke="#000000" stroke-width="0.5" stroke-dasharray="16,0" points="399.628,299.599 395.162,299.599"/>
<polyline fill="none" stroke="#000000" stroke-width="0.5" stroke-dasharray="16,0" points="196.532,247.393 200.998,247.393"/>
<polyline fill="none" stroke="#000000" stroke-width="0.5" stroke-dasharray="16,0" points="399.628,247.393 395.162,247.393"/>
<polyline fill="none" stroke="#000000" stroke-width="0.5" stroke-dasharray="16,0" points="196.532,195.187 200.998,195.187"/>
<polyline fill="none" stroke="#000000" stroke-width="0.5" stroke-dasharray="16,0" points="399.628,195.187 395.162,195.187"/>
<polyline fill="none" stroke="#000000" stroke-width="0.5" stroke-dasharray="16,0" points="196.532,142.981 200.998,142.981"/>
<polyline fill="none" stroke="#000000" stroke-width="0.5" stroke-dasharray="16,0" points="399.628,142.981 395.162,142.981"/>
<polyline fill="none" stroke="#000000" stroke-width="0.5" stroke-dasharray="16,0" points="196.532,90.7749 200.998,90.7749"/>
<polyline fill="none" stroke="#000000" stroke-width="0.5" stroke-dasharray="16,0" points="399.628,90.7749 395.162,90.7749"/>
<polyline fill="none" stroke="#000000" stroke-width="0.5" stroke-dasharray="16,0" points="196.532,38.5688 200.998,38.5688"/>
<polyline fill="none" stroke="#000000" stroke-width="0.5" stroke-dasharray="16,0" points="399.628,38.5688 395.162,38.5688"/>
<text fill="#000000" x="191.53" y="351.806" font-size="10" text-anchor="end" baseline-shift="-5" font-family="Helvetica">-6</text>
<text fill="#000000" x="191.53" y="299.599" font-size="10" text-anchor="end" baseline-shift="-5" font-family="Helvetica">-4</text>
<text fill="#000000" x="191.53" y="247.393" font-size="10" text-anchor="end" baseline-shift="-5" font-family="Helvetica">-2</text>
<text fill="#000000" x="191.53" y="195.187" font-size="10" text-anchor="end" baseline-shift="-5" font-family="Helvetica">0</text>
<text fill="#000000" x="191.53" y="142.981" font-size="10" text-anchor="end" baseline-shift="-5" font-family="Helvetica">2</text>
<text fill="#000000" x="191.53" y="90.7749" font-size="10" text-anchor="end" baseline-shift="-5" font-family="Helvetica">4</text>
<text fill="#000000" x="191.53" y="38.5688" font-size="10" text-anchor="end" baseline-shift="-5" font-family="Helvetica">6</text>
<polyline fill="none" stroke="#00007f" stroke-width="0.5" points="196.532,238.804 200.594,238.027 204.656,237.248 207.992,236.606 208.718,236.452 212.78,235.584 216.842,234.714 220.903,233.843 224.965,232.969 229.027,232.094 233.089,231.217 237.151,230.338 240.719,229.565 241.213,229.445 245.275,228.456 249.337,227.465 253.399,226.473 257.461,225.479 261.523,224.483 265.585,223.486 269.498,222.523 269.647,222.482 273.708,221.345 277.77,220.207 281.832,219.068 285.894,217.927 289.956,216.785 294.018,215.642 294.585,215.482 298.08,214.344 302.142,213.02 306.204,211.696 310.266,210.371 314.328,209.044 316.175,208.44 318.39,207.586 322.452,206.017 326.513,204.449 330.575,202.88 334.412,201.398 334.637,201.293 338.699,199.38 342.761,197.47 346.823,195.562 349.388,194.357 350.885,193.461 354.947,191.029 359.009,188.604 361.169,187.315 363.071,185.755 367.133,182.432 369.78,180.274 371.195,178.434 375.218,173.232 375.257,173.108 377.437,166.19 376.372,159.149 375.257,157.37 371.907,152.107 371.195,151.473 367.133,147.891 363.883,145.066 363.071,144.572 359.009,142.125 354.947,139.708 352.087,138.024 350.885,137.479 346.823,135.653 342.761,133.846 338.699,132.058 336.234,130.982 334.637,130.415 330.575,128.984 326.513,127.566 322.452,126.162 318.39,124.77 315.947,123.941 314.328,123.476 310.266,122.32 306.204,121.175 302.142,120.039 298.08,118.913 294.018,117.798 290.717,116.899 289.956,116.72 285.894,115.768 281.832,114.825 277.77,113.89 273.708,112.962 269.647,112.043 265.585,111.132 261.523,110.228 259.842,109.858 257.461,109.393 253.399,108.608 249.337,107.829 245.275,107.056 241.213,106.29 237.151,105.531 233.089,104.778 229.027,104.031 224.965,103.292 222.334,102.816 220.903,102.584 216.842,101.931 212.78,101.284 208.718,100.642 204.656,100.005 200.594,99.3743 196.532,98.7488"/>
<polyline fill="none" stroke="#0000f0" stroke-width="0.5" points="196.532,267.825 200.594,267.242 204.656,266.658 208.718,266.072 212.78,265.485 216.842,264.895 217.684,264.773 220.903,264.269 224.965,263.632 229.027,262.993 233.089,262.352 237.151,261.709 241.213,261.065 245.275,260.419 249.337,259.772 253.399,259.123 257.461,258.472 261.523,257.819 262.068,257.731 265.585,257.119 269.647,256.41 273.708,255.699 277.77,254.987 281.832,254.273 285.894,253.557 289.956,252.84 294.018,252.121 298.08,251.4 302.075,250.69 302.142,250.677 306.204,249.89 310.266,249.101 314.328,248.31 318.39,247.518 322.452,246.725 326.513,245.929 330.575,245.132 334.637,244.334 338.116,243.648 338.699,243.522 342.761,242.645 346.823,241.766 350.885,240.885 354.947,240.002 359.009,239.118 363.071,238.233 367.133,237.346 370.512,236.606 371.195,236.442 375.257,235.46 379.318,234.476 383.38,233.491 387.442,232.504 391.504,231.516 395.566,230.527 399.509,229.565 399.628,229.533"/>
<polyline fill="none" stroke="#0000f0" stroke-width="0.5" points="399.628,99.462 395.566,98.5932 391.504,97.7308 387.442,96.8748 383.38,96.0251 382.174,95.7744 379.318,95.2393 375.257,94.4833 371.195,93.7328 367.133,92.9879 363.071,92.2484 359.009,91.5143 354.947,90.7856 350.885,90.0623 346.823,89.3444 343.337,88.7328 342.761,88.6407 338.699,87.9954 334.637,87.3547 330.575,86.7188 326.513,86.0876 322.452,85.4611 318.39,84.8392 314.328,84.222 310.266,83.6094 306.204,83.0015 302.142,82.3982 298.08,81.7994 297.341,81.6912 294.018,81.2439 289.956,80.7011 285.894,80.1624 281.832,79.6278 277.77,79.0973 273.708,78.5709 269.647,78.0484 265.585,77.5301 261.523,77.0157 257.461,76.5054 253.399,75.9991 249.337,75.4967 245.275,74.9984 242.41,74.6496 241.213,74.5146 237.151,74.0598 233.089,73.6086 229.027,73.1611 224.965,72.7171 220.903,72.2767 216.842,71.8398 212.78,71.4065 208.718,70.9767 204.656,70.5504 200.594,70.1277 196.532,69.7084"/>
<polyline fill="none" stroke="#0063ff" stroke-width="0.5" points="196.532,290.099 200.594,289.602 204.656,289.104 208.718,288.605 212.78,288.104 216.842,287.601 220.903,287.097 224.965,286.592 229.027,286.084 230.519,285.898 233.089,285.556 237.151,285.015 241.213,284.472 245.275,283.927 249.337,283.381 253.399,282.834 257.461,282.285 261.523,281.734 265.585,281.182 269.647,280.628 273.708,280.073 277.77,279.516 281.832,278.958 282.574,278.856 285.894,278.369 289.956,277.771 294.018,277.172 298.08,276.572 302.142,275.97 306.204,275.366 310.266,274.761 314.328,274.154 318.39,273.546 322.452,272.936 326.513,272.325 329.9,271.814 330.575,271.706 334.637,271.049 338.699,270.391 342.761,269.732 346.823,269.071 350.885,268.409 354.947,267.745 359.009,267.079 363.071,266.412 367.133,265.744 371.195,265.074 373.014,264.773 375.257,264.375 379.318,263.653 383.38,262.93 387.442,262.204 391.504,261.478 395.566,260.75 399.628,260.02"/>
<polyline fill="none" stroke="#0063ff" stroke-width="0.5" points="399.628,68.8619 395.566,68.2834 391.504,67.7088 390.787,67.608 387.442,67.1711 383.38,66.644 379.318,66.1204 375.257,65.6005 371.195,65.084 367.133,64.5712 363.071,64.0619 359.009,63.5562 354.947,63.0539 350.885,62.5552 346.823,62.0599 342.761,61.5682 338.699,61.08 334.637,60.5952 334.394,60.5664 330.575,60.1432 326.513,59.6962 322.452,59.2524 318.39,58.8118 314.328,58.3744 310.266,57.9401 306.204,57.509 302.142,57.081 298.08,56.6561 294.018,56.2344 289.956,55.8158 285.894,55.4003 281.832,54.9879 277.77,54.5786 273.708,54.1724 269.647,53.7693 267.164,53.5248 265.585,53.3786 261.523,53.0055 257.461,52.6352 253.399,52.2677 249.337,51.9031 245.275,51.5413 241.213,51.1823 237.151,50.8261 233.089,50.4727 229.027,50.1222 224.965,49.7744 220.903,49.4294 216.842,49.0872 212.78,48.7478 208.718,48.4111 204.656,48.0772 200.594,47.7461 196.532,47.4177"/>
<polyline fill="none" stroke="#00d4ff" stroke-width="0.5" points="250.433,32.4 253.399,32.6284 257.461,32.9436 261.523,33.2614 265.585,33.5815 269.647,33.9041 273.708,34.2292 277.77,34.5569 281.832,34.887 285.894,35.2195 289.956,35.5546 294.018,35.8922 298.08,36.2324 302.142,36.575 306.204,36.9201 310.266,37.2678 314.328,37.618 318.39,37.9707 322.452,38.326 326.513,38.6838 330.575,39.0442 334.637,39.4071 335.021,39.4416 338.699,39.7916 342.761,40.1808 346.823,40.5727 350.885,40.9674 354.947,41.3648 359.009,41.7651 363.071,42.168 367.133,42.5738 371.195,42.9824 375.257,43.3937 379.318,43.8078 383.38,44.2247 387.442,44.6445 391.504,45.067 395.566,45.4924 399.628,45.9206"/>
<polyline fill="none" stroke="#00d4ff" stroke-width="0.5" points="196.532,308.883 200.594,308.449 204.656,308.013 208.718,307.577 212.78,307.138 213.852,307.022 216.842,306.682 220.903,306.218 224.965,305.753 229.027,305.287 233.089,304.819 237.151,304.349 241.213,303.879 245.275,303.407 249.337,302.933 253.399,302.458 257.461,301.982 261.523,301.504 265.585,301.025 269.647,300.545 273.708,300.063 274.4,299.981 277.77,299.558 281.832,299.047 285.894,298.535 289.956,298.021 294.018,297.506 298.08,296.99 302.142,296.472 306.204,295.953 310.266,295.432 314.328,294.911 318.39,294.387 322.452,293.863 326.513,293.336 329.572,292.939 330.575,292.802 334.637,292.243 338.699,291.682 342.761,291.121 346.823,290.557 350.885,289.993 354.947,289.427 359.009,288.86 363.071,288.291 367.133,287.721 371.195,287.15 375.257,286.577 379.318,286.003 380.06,285.898 383.38,285.399 387.442,284.788 391.504,284.175 395.566,283.561 399.628,282.945"/>
<polyline fill="none" stroke="#46ffb8" stroke-width="0.5" points="196.532,325.416 200.594,325.012 204.656,324.607 208.718,324.2 212.78,323.793 216.842,323.384 220.903,322.973 224.965,322.562 229.027,322.149 233.089,321.735 237.151,321.319 239.233,321.106 241.213,320.893 245.275,320.455 249.337,320.017 253.399,319.576 257.461,319.135 261.523,318.692 265.585,318.248 269.647,317.803 273.708,317.356 277.77,316.908 281.832,316.459 285.894,316.009 289.956,315.557 294.018,315.104 298.08,314.65 302.142,314.195 303.303,314.064 306.204,313.722 310.266,313.242 314.328,312.76 318.39,312.277 322.452,311.793 326.513,311.307 330.575,310.82 334.637,310.332 338.699,309.843 342.761,309.352 346.823,308.86 350.885,308.367 354.947,307.873 359.009,307.377 361.906,307.022 363.071,306.873 367.133,306.349 371.195,305.824 375.257,305.298 379.318,304.77 383.38,304.242 387.442,303.712 391.504,303.18 395.566,302.648 399.628,302.114"/>
<polyline fill="none" stroke="#b8ff46" stroke-width="0.5" points="196.532,340.376 200.594,339.998 204.656,339.619 208.718,339.239 212.78,338.857 216.842,338.474 220.903,338.09 224.965,337.705 229.027,337.318 233.089,336.93 237.151,336.542 241.213,336.152 245.275,335.76 249.337,335.368 251.185,335.189 253.399,334.965 257.461,334.554 261.523,334.141 265.585,333.727 269.647,333.311 273.708,332.895 277.77,332.477 281.832,332.058 285.894,331.638 289.956,331.217 294.018,330.794 298.08,330.371 302.142,329.946 306.204,329.52 310.266,329.092 314.328,328.664 318.39,328.234 319.211,328.147 322.452,327.788 326.513,327.337 330.575,326.885 334.637,326.431 338.699,325.977 342.761,325.521 346.823,325.063 350.885,324.605 354.947,324.146 359.009,323.685 363.071,323.223 367.133,322.76 371.195,322.295 375.257,321.83 379.318,321.363 381.555,321.106 383.38,320.886 387.442,320.395 391.504,319.903 395.566,319.41 399.628,318.916"/>
<polyline fill="none" stroke="#ffd400" stroke-width="0.5" points="196.532,354.125 200.594,353.769 204.656,353.412 208.718,353.054 212.78,352.695 216.842,352.335 220.903,351.974 224.965,351.612 229.027,351.248 233.089,350.883 237.151,350.518 241.213,350.151 245.275,349.783 249.337,349.414 250.892,349.272 253.399,349.035 257.461,348.649 261.523,348.261 265.585,347.873 269.647,347.484 273.708,347.093 277.77,346.702 281.832,346.309 285.894,345.915 289.956,345.52 294.018,345.124 298.08,344.726 302.142,344.328 306.204,343.929 310.266,343.528 314.328,343.126 318.39,342.723 322.452,342.319 323.342,342.23 326.513,341.901 330.575,341.479 334.637,341.055 338.699,340.63 342.761,340.203 346.823,339.776 350.885,339.348 354.947,338.918 359.009,338.487 363.071,338.056 367.133,337.623 371.195,337.189 375.257,336.754 379.318,336.317 383.38,335.88 387.442,335.441 389.774,335.189 391.504,334.994 395.566,334.534 399.628,334.074"/>
<polyline fill="none" stroke="#ff6300" stroke-width="0.5" points="196.532,366.919 200.594,366.583 204.656,366.246 208.718,365.908 212.78,365.569 216.842,365.229 220.903,364.888 224.965,364.545 229.027,364.202 233.089,363.858 237.151,363.512 238.99,363.355 241.213,363.159 245.275,362.798 249.337,362.437 253.399,362.074 257.461,361.711 261.523,361.346 265.585,360.98 269.647,360.614 273.708,360.246 277.77,359.877 281.832,359.507 285.894,359.136 289.956,358.764 294.018,358.39 298.08,358.016 302.142,357.641 306.204,357.264 310.266,356.887 314.328,356.509 316.413,356.314 318.39,356.122 322.452,355.727 326.513,355.331 330.575,354.934 334.637,354.536 338.699,354.136 342.761,353.736 346.823,353.335 350.885,352.932 354.947,352.529 359.009,352.124 363.071,351.718 367.133,351.312 371.195,350.904 375.257,350.495 379.318,350.085 383.38,349.674 387.345,349.272 387.442,349.262 391.504,348.833 395.566,348.402 399.628,347.971"/>
<polyline fill="none" stroke="#f00000" stroke-width="0.5" points="196.532,378.95 200.594,378.632 204.656,378.312 208.718,377.992 212.78,377.67 215.697,377.438 216.842,377.344 220.903,377.01 224.965,376.674 229.027,376.337 233.089,376 237.151,375.661 241.213,375.321 245.275,374.98 249.337,374.638 253.399,374.295 257.461,373.952 261.523,373.607 265.585,373.261 269.647,372.914 273.708,372.566 277.77,372.217 281.832,371.867 285.894,371.516 289.956,371.164 294.018,370.811 298.08,370.457 298.768,370.397 302.142,370.092 306.204,369.723 310.266,369.353 314.328,368.983 318.39,368.611 322.452,368.239 326.513,367.865 330.575,367.49 334.637,367.115 338.699,366.738 342.761,366.36 346.823,365.982 350.885,365.602 354.947,365.221 359.009,364.839 363.071,364.456 367.133,364.073 371.195,363.688 374.696,363.355 375.257,363.3 379.318,362.899 383.38,362.497 387.442,362.095 391.504,361.691 395.566,361.286 399.628,360.88"/>
<polyline fill="none" stroke="#7f0000" stroke-width="0.5" points="270.423,384.48 273.708,384.204 277.77,383.862 281.832,383.519 285.894,383.175 289.956,382.829 294.018,382.483 298.08,382.136 302.142,381.788 306.204,381.439 310.266,381.089 314.328,380.738 318.39,380.386 322.452,380.033 326.513,379.679 330.575,379.324 334.637,378.969 338.699,378.612 342.761,378.254 346.823,377.895 350.885,377.536 351.979,377.438 354.947,377.166 359.009,376.792 363.071,376.417 367.133,376.042 371.195,375.665 375.257,375.287 379.318,374.908 383.38,374.529 387.442,374.148 391.504,373.766 395.566,373.384 399.628,373"/>
</g>
</svg>
