<?xml version="1.0" encoding="UTF-8" standalone="no"?>
<svg xmlns="http://www.w3.org/2000/svg"
     xmlns:xlink="http://www.w3.org/1999/xlink"
     width="576px" height="432px" viewBox="0 0 576 432">
<title>glps_renderer figure</title>
<desc>
Creator: GL2PS 1.3.8, (C) 1999-2012 C. Geuzaine
For: Octave
CreationDate: Wed Jun  1 14:37:31 2016
</desc>
<defs>
</defs>
<g shape-rendering="crispEdges">
<polygon fill="#ffffff" points="196.532,384.48 399.628,384.48 196.532,32.4"/>
<polygon fill="#ffffff" points="399.628,384.48 399.628,32.4 196.532,32.4"/>
<polyline fill="none" stroke="#000000" stroke-width="0.5" stroke-dasharray="16,0" points="196.532,384.48 399.628,384.48"/>
<polyline fill="none" stroke="#000000" stroke-width="0.5" stroke-dasharray="16,0" points="196.532,32.4 399.628,32.4"/>
<polyline fill="none" stroke="#000000" stroke-width="0.5" stroke-dasharray="16,0" points="196.532,32.4 399.628,32.4"/>
<polyline fill="none" stroke="#000000" stroke-width="0.5" stroke-dasharray="16,0" points="196.532,384.48 399.628,384.48"/>
<polyline fill="none" stroke="#000000" stroke-width="0.5" stroke-dasharray="16,0" points="196.532,384.48 196.532,32.4"/>
<polyline fill="none" stroke="#000000" stroke-width="0.5" stroke-dasharray="16,0" points="399.628,384.48 399.628,32.4"/>
<polyline fill="none" stroke="#000000" stroke-width="0.5" stroke-dasharray="16,0" points="399.628,384.48 399.628,32.4"/>
<polyline fill="none" stroke="#000000" stroke-width="0.5" stroke-dasharray="16,0" points="196.532,384.48 196.532,32.4 196.532,32.4"/>
<polyline fill="none" stroke="#000000" stroke-width="0.5" stroke-dasharray="16,0" points="399.628,32.4 399.628,32.4"/>
<polyline fill="none" stroke="#000000" stroke-width="0.5" stroke-dasharray="16,0" points="399.628,384.48 399.628,384.48"/>
<polyline fill="none" stroke="#000000" stroke-width="0.5" stroke-dasharray="16,0" points="196.532,384.48 196.532,384.48"/>
<polyline fill="none" stroke="#000000" stroke-width="0.5" stroke-dasharray="16,0" points="217.89,384.48 217.89,380.015"/>
<polyline fill="none" stroke="#000000" stroke-width="0.5" stroke-dasharray="16,0" points="217.89,32.4 217.89,36.865"/>
<polyline fill="none" stroke="#000000" stroke-width="0.5" stroke-dasharray="16,0" points="270.097,384.48 270.097,380.015"/>
<polyline fill="none" stroke="#000000" stroke-width="0.5" stroke-dasharray="16,0" points="270.097,32.4 270.097,36.865"/>
<polyline fill="none" stroke="#000000" stroke-width="0.5" stroke-dasharray="16,0" points="322.303,384.48 322.303,380.015"/>
<polyline fill="none" stroke="#000000" stroke-width="0.5" stroke-dasharray="16,0" points="322.303,32.4 322.303,36.865"/>
<polyline fill="none" stroke="#000000" stroke-width="0.5" stroke-dasharray="16,0" points="374.509,384.48 374.509,380.015"/>
<polyline fill="none" stroke="#000000" stroke-width="0.5" stroke-dasharray="16,0" points="374.509,32.4 374.509,36.865"/>
<text fill="#000000" x="217.89" y="389.481" font-size="10" text-anchor="middle" baseline-shift="-10" font-family="Helvetica">-2</text>
<text fill="#000000" x="270.097" y="389.481" font-size="10" text-anchor="middle" baseline-shift="-10" font-family="Helvetica">0</text>
<text fill="#000000" x="322.303" y="389.481" font-size="10" text-anchor="middle" baseline-shift="-10" font-family="Helvetica">2</text>
<text fill="#000000" x="374.509" y="389.481" font-size="10" text-anchor="middle" baseline-shift="-10" font-family="Helvetica">4</text>
<polyline fill="none" stroke="#000000" stroke-width="0.5" stroke-dasharray="16,0" points="196.532,351.806 200.998,351.806"/>
<polyline fill="none" stroke="#000000" stroke-width="0.5" stroke-dasharray="16,0" points="399.628,351.806 395.162,351.806"/>
<polyline fill="none" stroke="#000000" stroke-width="0.5" stroke-dasharray="16,0" points="196.532,299.599 200.998,299.599"/>
<polyline fill="none" stroke="#000000" stroke-width="0.5" stroke-dasharray="16,0" points="399.628,299.599 395.162,299.599"/>
<polyline fill="none" stroke="#000000" stroke-width="0.5" stroke-dasharray="16,0" points="196.532,247.393 200.998,247.393"/>
<polyline fill="none" stroke="#000000" stroke-width="0.5" stroke-dasharray="16,0" points="399.628,247.393 395.162,247.393"/>
<polyline fill="none" stroke="#000000" stroke-width="0.5" stroke-dasharray="16,0" points="196.532,195.187 200.998,195.187"/>
<polyline fill="none" stroke="#000000" stroke-width="0.5" stroke-dasharray="16,0" points="399.628,195.187 395.162,195.187"/>
<polyline fill="none" stroke="#000000" stroke-width="0.5" stroke-dasharray="16,0" points="196.532,142.981 200.998,142.981"/>
<polyline fill="none" stroke="#000000" stroke-width="0.5" stroke-dasharray="16,0" points="399.628,142.981 395.162,142.981"/>
<polyline fill="none" stroke="#000000" stroke-width="0.5" stroke-dasharray="16,0" points="196.532,90.7749 200.998,90.7749"/>
<polyline fill="none" stroke="#000000" stroke-width="0.5" stroke-dasharray="16,0" points="399.628,90.7749 395.162,90.7749"/>
<polyline fill="none" stroke="#000000" stroke-width="0.5" stroke-dasharray="16,0" points="196.532,38.5688 200.998,38.5688"/>
<polyline fill="none" stroke="#000000" stroke-width="0.5" stroke-dasharray="16,0" points="399.628,38.5688 395.162,38.5688"/>
<text fill="#000000" x="191.53" y="351.806" font-size="10" text-anchor="end" baseline-shift="-5" font-family="Helvetica">-6</text>
<text fill="#000000" x="191.53" y="299.599" font-size="10" text-anchor="end" baseline-shift="-5" font-family="Helvetica">-4</text>
<text fill="#000000" x="191.53" y="247.393" font-size="10" text-anchor="end" baseline-shift="-5" font-family="Helvetica">-2</text>
<text fill="#000000" x="191.53" y="195.187" font-size="10" text-anchor="end" baseline-shift="-5" font-family="Helvetica">0</text>
<text fill="#000000" x="191.53" y="142.981" font-size="10" text-anchor="end" baseline-shift="-5" font-family="Helvetica">2</text>
<text fill="#000000" x="191.53" y="90.7749" font-size="10" text-anchor="end" baseline-shift="-5" font-family="Helvetica">4</text>
<text fill="#000000" x="191.53" y="38.5688" font-size="10" text-anchor="end" baseline-shift="-5" font-family="Helvetica">6</text>
<polyline fill="none" stroke="#00007f" stroke-width="0.5" points="196.532,238.921 200.594,238.144 204.656,237.366 208.607,236.606 208.718,236.583 212.78,235.715 216.842,234.845 220.903,233.973 224.965,233.099 229.027,232.223 233.089,231.345 237.151,230.465 241.213,229.584 241.3,229.565 245.275,228.595 249.337,227.603 253.399,226.609 257.461,225.613 261.523,224.615 265.585,223.615 269.647,222.614 270.013,222.523 273.708,221.487 277.77,220.346 281.832,219.203 285.894,218.059 289.956,216.914 294.018,215.766 295.024,215.482 298.08,214.484 302.142,213.156 306.204,211.827 310.266,210.496 314.328,209.165 316.537,208.44 318.39,207.723 322.452,206.149 326.513,204.574 330.575,202.999 334.637,201.425 334.705,201.398 338.699,199.511 342.761,197.594 346.823,195.678 349.626,194.357 350.885,193.601 354.947,191.161 359.009,188.728 361.369,187.315 363.071,185.917 367.133,182.586 369.963,180.274 371.195,178.673 375.257,173.423 375.405,173.232 377.65,166.19 376.629,159.149 375.257,156.93 372.225,152.107 371.195,151.18 367.133,147.571 364.274,145.066 363.071,144.33 359.009,141.87 354.947,139.441 352.552,138.024 350.885,137.265 346.823,135.433 342.761,133.621 338.699,131.829 336.763,130.982 334.637,130.226 330.575,128.793 326.513,127.375 322.452,125.97 318.39,124.579 316.508,123.941 314.328,123.316 310.266,122.162 306.204,121.018 302.142,119.885 298.08,118.763 294.018,117.651 291.245,116.899 289.956,116.596 285.894,115.649 281.832,114.71 277.77,113.78 273.708,112.858 269.647,111.945 265.585,111.04 261.523,110.143 260.221,109.858 257.461,109.324 253.399,108.544 249.337,107.772 245.275,107.007 241.213,106.248 237.151,105.497 233.089,104.752 229.027,104.014 224.965,103.283 222.349,102.816 220.903,102.585 216.842,101.94 212.78,101.301 208.718,100.668 204.656,100.041 200.594,99.4192 196.532,98.8033"/>
<polyline fill="none" stroke="#0000f0" stroke-width="0.5" points="196.532,267.955 200.594,267.372 204.656,266.787 208.718,266.2 212.78,265.611 216.842,265.021 218.544,264.773 220.903,264.403 224.965,263.764 229.027,263.124 233.089,262.481 237.151,261.837 241.213,261.191 245.275,260.543 249.337,259.893 253.399,259.242 257.461,258.588 261.523,257.933 262.77,257.731 265.585,257.239 269.647,256.527 273.708,255.814 277.77,255.098 281.832,254.381 285.894,253.661 289.956,252.941 294.018,252.218 298.08,251.493 302.142,250.767 302.573,250.69 306.204,249.982 310.266,249.189 314.328,248.394 318.39,247.597 322.452,246.798 326.513,245.998 330.575,245.196 334.637,244.392 338.389,243.648 338.699,243.581 342.761,242.697 346.823,241.812 350.885,240.925 354.947,240.036 359.009,239.146 363.071,238.254 367.133,237.361 370.554,236.606 371.195,236.451 375.257,235.461 379.318,234.47 383.38,233.477 387.442,232.483 391.504,231.487 395.566,230.49 399.328,229.565 399.628,229.483"/>
<polyline fill="none" stroke="#0000f0" stroke-width="0.5" points="399.628,99.3106 395.566,98.4382 391.504,97.5726 387.442,96.7137 383.38,95.8616 382.962,95.7744 379.318,95.0898 375.257,94.3322 371.195,93.5805 367.133,92.8346 363.071,92.0944 359.009,91.36 354.947,90.6313 350.885,89.9083 346.823,89.191 344.209,88.7328 342.761,88.5015 338.699,87.8572 334.637,87.2179 330.575,86.5836 326.513,85.9542 322.452,85.3298 318.39,84.7103 314.328,84.0957 310.266,83.486 306.204,82.8811 302.142,82.2811 298.116,81.6912 298.08,81.6864 294.018,81.143 289.956,80.604 285.894,80.0693 281.832,79.5389 277.77,79.0128 273.708,78.4909 269.647,77.9733 265.585,77.46 261.523,76.9509 257.461,76.446 253.399,75.9454 249.337,75.4489 245.275,74.9567 242.72,74.6496 241.213,74.4818 237.151,74.033 233.089,73.5881 229.027,73.1469 224.965,72.7095 220.903,72.2758 216.842,71.8459 212.78,71.4197 208.718,70.9973 204.656,70.5785 200.594,70.1634 196.532,69.752"/>
<polyline fill="none" stroke="#0063ff" stroke-width="0.5" points="196.532,290.239 200.594,289.741 204.656,289.242 208.718,288.741 212.78,288.239 216.842,287.735 220.903,287.229 224.965,286.722 229.027,286.213 231.534,285.898 233.089,285.69 237.151,285.147 241.213,284.601 245.275,284.054 249.337,283.506 253.399,282.956 257.461,282.404 261.523,281.851 265.585,281.296 269.647,280.739 273.708,280.181 277.77,279.621 281.832,279.059 283.299,278.856 285.894,278.473 289.956,277.872 294.018,277.269 298.08,276.664 302.142,276.058 306.204,275.45 310.266,274.841 314.328,274.23 318.39,273.617 322.452,273.003 326.513,272.387 330.283,271.814 330.575,271.767 334.637,271.105 338.699,270.442 342.761,269.778 346.823,269.111 350.885,268.443 354.947,267.774 359.009,267.102 363.071,266.43 367.133,265.755 371.195,265.079 373.031,264.773 375.257,264.375 379.318,263.646 383.38,262.916 387.442,262.184 391.504,261.45 395.566,260.715 399.628,259.978"/>
<polyline fill="none" stroke="#0063ff" stroke-width="0.5" points="399.628,68.7017 395.566,68.1221 391.937,67.608 391.504,67.5511 387.442,67.0199 383.38,66.4926 379.318,65.9689 375.257,65.4491 371.195,64.933 367.133,64.4208 363.071,63.9122 359.009,63.4073 354.947,62.9062 350.885,62.4088 346.823,61.9151 342.761,61.4251 338.699,60.9388 335.566,60.5664 334.637,60.4633 330.575,60.0153 326.513,59.5706 322.452,59.1293 318.39,58.6914 314.328,58.2568 310.266,57.8255 306.204,57.3976 302.142,56.973 298.08,56.5516 294.018,56.1336 289.956,55.7189 285.894,55.3074 281.832,54.8992 277.77,54.4943 273.708,54.0927 269.647,53.6943 267.905,53.5248 265.585,53.3127 261.523,52.9443 257.461,52.5789 253.399,52.2164 249.337,51.857 245.275,51.5005 241.213,51.147 237.151,50.7964 233.089,50.4489 229.027,50.1042 224.965,49.7625 220.903,49.4238 216.842,49.088 212.78,48.7551 208.718,48.425 204.656,48.098 200.594,47.7738 196.532,47.4525"/>
<polyline fill="none" stroke="#00d4ff" stroke-width="0.5" points="251.126,32.4 253.399,32.5721 257.461,32.8823 261.523,33.1951 265.585,33.5105 269.647,33.8285 273.708,34.1491 277.77,34.4724 281.832,34.7982 285.894,35.1267 289.956,35.4579 294.018,35.7916 298.08,36.1281 302.142,36.4671 306.204,36.8088 310.266,37.1533 314.328,37.5003 318.39,37.85 322.452,38.2025 326.513,38.5576 330.575,38.9154 334.637,39.2759 336.492,39.4416 338.699,39.6504 342.761,40.0373 346.823,40.4271 350.885,40.8199 354.947,41.2155 359.009,41.6141 363.071,42.0156 367.133,42.42 371.195,42.8274 375.257,43.2377 379.318,43.6509 383.38,44.0671 387.442,44.4863 391.504,44.9085 395.566,45.3336 399.628,45.7618"/>
<polyline fill="none" stroke="#00d4ff" stroke-width="0.5" points="196.532,309.028 200.594,308.593 204.656,308.156 208.718,307.717 212.78,307.278 215.128,307.022 216.842,306.827 220.903,306.361 224.965,305.894 229.027,305.425 233.089,304.955 237.151,304.483 241.213,304.01 245.275,303.535 249.337,303.059 253.399,302.581 257.461,302.102 261.523,301.622 265.585,301.14 269.647,300.656 273.708,300.171 275.299,299.981 277.77,299.669 281.832,299.155 285.894,298.639 289.956,298.121 294.018,297.603 298.08,297.082 302.142,296.561 306.204,296.037 310.266,295.513 314.328,294.986 318.39,294.459 322.452,293.93 326.513,293.399 330.024,292.939 330.575,292.863 334.637,292.299 338.699,291.734 342.761,291.167 346.823,290.599 350.885,290.029 354.947,289.457 359.009,288.885 363.071,288.311 367.133,287.735 371.195,287.158 375.257,286.579 379.318,285.999 380.027,285.898 383.38,285.389 387.442,284.771 391.504,284.152 395.566,283.531 399.628,282.909"/>
<polyline fill="none" stroke="#46ffb8" stroke-width="0.5" points="196.532,325.571 200.594,325.165 204.656,324.758 208.718,324.35 212.78,323.94 216.842,323.529 220.903,323.116 224.965,322.703 229.027,322.288 233.089,321.871 237.151,321.453 240.519,321.106 241.213,321.031 245.275,320.59 249.337,320.149 253.399,319.706 257.461,319.261 261.523,318.816 265.585,318.368 269.647,317.92 273.708,317.47 277.77,317.019 281.832,316.566 285.894,316.112 289.956,315.657 294.018,315.2 298.08,314.742 302.142,314.283 304.072,314.064 306.204,313.81 310.266,313.326 314.328,312.84 318.39,312.353 322.452,311.864 326.513,311.374 330.575,310.882 334.637,310.39 338.699,309.895 342.761,309.4 346.823,308.903 350.885,308.405 354.947,307.905 359.009,307.404 362.098,307.022 363.071,306.896 367.133,306.367 371.195,305.836 375.257,305.304 379.318,304.771 383.38,304.236 387.442,303.7 391.504,303.163 395.566,302.624 399.628,302.084"/>
<polyline fill="none" stroke="#b8ff46" stroke-width="0.5" points="196.532,340.538 200.594,340.158 204.656,339.777 208.718,339.394 212.78,339.01 216.842,338.625 220.903,338.239 224.965,337.851 229.027,337.463 233.089,337.072 237.151,336.681 241.213,336.288 245.275,335.894 249.337,335.499 252.518,335.189 253.399,335.099 257.461,334.684 261.523,334.268 265.585,333.851 269.647,333.432 273.708,333.013 277.77,332.592 281.832,332.169 285.894,331.745 289.956,331.32 294.018,330.894 298.08,330.467 302.142,330.038 306.204,329.608 310.266,329.177 314.328,328.744 318.39,328.31 319.913,328.147 322.452,327.863 326.513,327.408 330.575,326.951 334.637,326.492 338.699,326.033 342.761,325.572 346.823,325.11 350.885,324.647 354.947,324.182 359.009,323.716 363.071,323.249 367.133,322.781 371.195,322.311 375.257,321.84 379.318,321.368 381.571,321.106 383.38,320.885 387.442,320.389 391.504,319.891 395.566,319.392 399.628,318.891"/>
<polyline fill="none" stroke="#ffd400" stroke-width="0.5" points="196.532,354.292 200.594,353.934 204.656,353.575 208.718,353.215 212.78,352.854 216.842,352.491 220.903,352.128 224.965,351.763 229.027,351.397 233.089,351.03 237.151,350.661 241.213,350.292 245.275,349.921 249.337,349.549 252.353,349.272 253.399,349.172 257.461,348.783 261.523,348.393 265.585,348.001 269.647,347.609 273.708,347.215 277.77,346.82 281.832,346.423 285.894,346.026 289.956,345.627 294.018,345.227 298.08,344.826 302.142,344.424 306.204,344.02 310.266,343.616 314.328,343.21 318.39,342.803 322.452,342.395 324.08,342.23 326.513,341.975 330.575,341.548 334.637,341.119 338.699,340.69 342.761,340.259 346.823,339.827 350.885,339.393 354.947,338.959 359.009,338.523 363.071,338.086 367.133,337.648 371.195,337.209 375.257,336.768 379.318,336.327 383.38,335.884 387.442,335.44 389.732,335.189 391.504,334.986 395.566,334.521 399.628,334.055"/>
<polyline fill="none" stroke="#ff6300" stroke-width="0.5" points="196.532,367.09 200.594,366.752 204.656,366.413 208.718,366.073 212.78,365.731 216.842,365.389 220.903,365.045 224.965,364.7 229.027,364.354 233.089,364.007 237.151,363.659 240.686,363.355 241.213,363.308 245.275,362.945 249.337,362.581 253.399,362.215 257.461,361.848 261.523,361.48 265.585,361.111 269.647,360.741 273.708,360.37 277.77,359.998 281.832,359.624 285.894,359.249 289.956,358.874 294.018,358.497 298.08,358.119 302.142,357.74 306.204,357.359 310.266,356.978 314.328,356.595 317.309,356.314 318.39,356.208 322.452,355.808 326.513,355.408 330.575,355.006 334.637,354.604 338.699,354.2 342.761,353.795 346.823,353.389 350.885,352.981 354.947,352.573 359.009,352.164 363.071,351.753 367.133,351.341 371.195,350.928 375.257,350.514 379.318,350.099 383.38,349.683 387.376,349.272 387.442,349.265 391.504,348.83 395.566,348.394 399.628,347.957"/>
<polyline fill="none" stroke="#f00000" stroke-width="0.5" points="196.532,379.125 200.594,378.804 204.656,378.482 208.718,378.159 212.78,377.835 216.842,377.51 217.737,377.438 220.903,377.176 224.965,376.837 229.027,376.498 233.089,376.157 237.151,375.816 241.213,375.473 245.275,375.129 249.337,374.784 253.399,374.438 257.461,374.091 261.523,373.743 265.585,373.394 269.647,373.044 273.708,372.693 277.77,372.34 281.832,371.987 285.894,371.632 289.956,371.276 294.018,370.92 298.08,370.562 299.95,370.397 302.142,370.196 306.204,369.824 310.266,369.45 314.328,369.076 318.39,368.7 322.452,368.323 326.513,367.945 330.575,367.566 334.637,367.186 338.699,366.804 342.761,366.422 346.823,366.039 350.885,365.654 354.947,365.269 359.009,364.882 363.071,364.494 367.133,364.106 371.195,363.716 374.942,363.355 375.257,363.324 379.318,362.918 383.38,362.511 387.442,362.102 391.504,361.693 395.566,361.283 399.628,360.871"/>
<polyline fill="none" stroke="#7f0000" stroke-width="0.5" points="272.023,384.48 273.708,384.337 277.77,383.991 281.832,383.645 285.894,383.297 289.956,382.948 294.018,382.598 298.08,382.247 302.142,381.895 306.204,381.542 310.266,381.188 314.328,380.833 318.39,380.477 322.452,380.12 326.513,379.762 330.575,379.402 334.637,379.042 338.699,378.681 342.761,378.319 346.823,377.955 350.885,377.591 352.582,377.438 354.947,377.219 359.009,376.84 363.071,376.46 367.133,376.079 371.195,375.697 375.257,375.315 379.318,374.931 383.38,374.546 387.442,374.16 391.504,373.773 395.566,373.385 399.628,372.996"/>
</g>
</svg>
